<svg width="37" height="37" viewBox="0 0 37 37" fill="none" xmlns="http://www.w3.org/2000/svg">
<rect x="1" y="1" width="35" height="35" rx="17.5" fill="white"/>
<path d="M11.8398 22.3848V25.1598H14.6148L22.7992 16.9754L20.0242 14.2004L11.8398 22.3848ZM24.9452 14.8294C25.0138 14.761 25.0683 14.6796 25.1054 14.5901C25.1425 14.5006 25.1617 14.4046 25.1617 14.3077C25.1617 14.2108 25.1425 14.1148 25.1054 14.0253C25.0683 13.9358 25.0138 13.8545 24.9452 13.786L23.2136 12.0544C23.1452 11.9858 23.0639 11.9314 22.9743 11.8943C22.8848 11.8571 22.7889 11.838 22.6919 11.838C22.595 11.838 22.4991 11.8571 22.4095 11.8943C22.32 11.9314 22.2387 11.9858 22.1702 12.0544L20.816 13.4086L23.591 16.1836L24.9452 14.8294Z" fill="#F0BA30"/>
<rect x="1" y="1" width="35" height="35" rx="17.5" stroke="#E4E4E4" stroke-width="2"/>
</svg>
