<svg width="143" height="143" viewBox="0 0 143 143" fill="none" xmlns="http://www.w3.org/2000/svg">
<rect width="143" height="143" rx="16" fill="#F0BA30"/>
<path d="M72.0007 80.3423C71.6895 80.3423 71.3979 80.2941 71.1257 80.1977C70.8534 80.1012 70.6007 79.9355 70.3673 79.7007L61.9673 71.3007C61.5395 70.8729 61.3257 70.3284 61.3257 69.6673C61.3257 69.0062 61.5395 68.4618 61.9673 68.034C62.3951 67.6062 62.9497 67.383 63.631 67.3643C64.3123 67.3457 64.8661 67.5494 65.2923 67.9757L69.6673 72.3507V55.6673C69.6673 55.0062 69.8913 54.4517 70.3393 54.0037C70.7873 53.5557 71.3411 53.3324 72.0007 53.334C72.6618 53.334 73.2163 53.558 73.6643 54.006C74.1123 54.454 74.3355 55.0078 74.334 55.6673V72.3507L78.709 67.9757C79.1368 67.5479 79.6913 67.3433 80.3727 67.362C81.054 67.3807 81.6078 67.6047 82.034 68.034C82.4618 68.4618 82.6757 69.0062 82.6757 69.6673C82.6757 70.3284 82.4618 70.8729 82.034 71.3007L73.634 79.7007C73.4007 79.934 73.1479 80.0997 72.8757 80.1977C72.6034 80.2957 72.3118 80.3439 72.0007 80.3423ZM58.0007 90.6673C56.7173 90.6673 55.6183 90.21 54.7037 89.2953C53.789 88.3807 53.3324 87.2824 53.334 86.0007V81.334C53.334 80.6729 53.558 80.1183 54.006 79.6703C54.454 79.2223 55.0078 78.9991 55.6673 79.0007C56.3284 79.0007 56.883 79.2247 57.331 79.6727C57.779 80.1207 58.0022 80.6744 58.0007 81.334V86.0007H86.0007V81.334C86.0007 80.6729 86.2247 80.1183 86.6727 79.6703C87.1207 79.2223 87.6744 78.9991 88.334 79.0007C88.9951 79.0007 89.5497 79.2247 89.9977 79.6727C90.4457 80.1207 90.6689 80.6744 90.6673 81.334V86.0007C90.6673 87.284 90.21 88.383 89.2953 89.2977C88.3807 90.2123 87.2824 90.6689 86.0007 90.6673H58.0007Z" fill="white"/>
</svg>
