<svg width="5" height="7" viewBox="0 0 5 7" fill="none" xmlns="http://www.w3.org/2000/svg">
<path d="M0.646393 0.318268C0.552658 0.412032 0.5 0.539186 0.5 0.671768C0.5 0.80435 0.552658 0.931504 0.646393 1.02527L3.12139 3.50027L0.646393 5.97527C0.555314 6.06957 0.504917 6.19587 0.506056 6.32697C0.507195 6.45807 0.55978 6.58347 0.652484 6.67618C0.745188 6.76888 0.870594 6.82147 1.00169 6.82261C1.13279 6.82374 1.25909 6.77335 1.35339 6.68227L4.18189 3.85377C4.27563 3.76 4.32829 3.63285 4.32829 3.50027C4.32829 3.36769 4.27563 3.24053 4.18189 3.14677L1.35339 0.318268C1.25963 0.224533 1.13248 0.171875 0.999893 0.171875C0.867311 0.171875 0.740157 0.224533 0.646393 0.318268Z" fill="#F0BA30"/>
</svg>
