<svg width="629" height="231" viewBox="0 0 629 231" fill="none" xmlns="http://www.w3.org/2000/svg">
<mask id="path-1-inside-1_423_33368" fill="white">
<path d="M175.212 102.462C171.791 78.3755 167.469 52.1727 156.71 14.4443C154.504 6.74551 149.417 2.06327 140.863 0.352432C135.191 -0.773118 127.133 0.847665 118.714 4.49445L111.241 7.78103C139.062 114.438 133.975 120.966 134.516 228.974H176.698V144.693L223.157 138.03V228.974H265.43V128.35C265.43 99.6709 249.988 90.2162 222.212 94.7635L175.212 102.462ZM91.4778 226.768C99.5812 224.517 107.324 221.41 114.167 217.809L102.687 181.386C96.9701 183.862 88.6867 186.923 80.9435 189.13C72.525 191.516 64.4216 192.956 59.8747 191.876C57.7589 191.381 55.8231 190.66 54.0223 189.715C52.1766 188.769 50.5109 187.554 48.9352 186.158C46.4592 183.862 44.5684 180.981 43.3079 177.514C42.1824 174.317 41.5972 170.626 41.5972 166.484V154.778C41.5972 151.086 42.1824 147.754 43.3529 144.738C44.5684 141.586 46.3692 138.93 48.8002 136.724C53.4371 132.447 59.5146 130.286 67.0327 130.286C74.5508 130.286 89.407 137.174 98.2306 141.316L114.572 111.106C108.63 106.649 100.301 102.147 91.5228 98.6804C82.0239 94.8986 72.1198 92.3323 64.3316 92.3323C44.4784 92.3323 28.1816 98.1852 17.017 109.035C6.16755 119.616 0 135.103 0 154.823V166.529C0 176.884 1.48561 185.978 4.41182 193.902C7.29301 201.691 11.6598 208.354 17.4672 213.937C23.3196 219.564 29.4872 223.797 36.8252 226.588C44.2533 229.379 53.122 230.82 64.2866 230.82C73.3803 230.82 82.6091 229.379 91.3878 226.948M306.577 159.01C303.245 155.948 301.31 153.337 301.31 149.915C301.31 146.764 303.38 144.243 307.072 144.243C310.763 144.243 312.024 146.944 312.024 150.141C312.024 152.617 311.259 155.813 306.577 159.01ZM320.442 183.232C315.76 187.689 310.988 188.139 308.738 188.139C305.316 188.139 302.255 187.239 299.914 184.717C297.708 182.376 297.078 179.81 297.078 176.974C297.078 173.642 297.798 171.346 299.554 168.645C300.679 166.889 301.805 165.583 303.38 164.458L320.442 183.232ZM326.16 189.4C327.42 190.75 329.626 193.092 332.778 193.092C335.164 193.092 337.099 191.651 338.45 190.615C339.8 189.535 340.791 188.544 341.871 187.284L340.296 185.798C339.17 187.284 337.369 188.139 335.884 188.139C333.543 188.139 331.607 186.338 330.347 184.943L326.565 180.755C329.986 176.478 331.472 172.922 333.183 169.185C334.173 166.979 335.974 162.927 341.061 162.702V160.586H323.144V162.702L325.71 163.152C329.041 163.737 329.131 166.844 329.131 167.654C329.131 171.391 326.7 175.848 324.494 178.504L308.422 161.171C310.538 159.82 312.834 157.974 314.32 156.354C316.031 154.508 317.291 152.302 317.291 149.6C317.291 147.124 316.166 144.963 314.5 143.612C312.789 142.172 310.178 141.406 307.117 141.406C303.56 141.406 301.264 142.622 299.914 143.657C296.988 145.998 296.583 149.15 296.583 151.401C296.583 154.328 297.483 157.884 301.49 162.341C299.059 163.782 296.448 165.763 294.467 168.104C291.856 171.166 290.325 174.362 290.325 178.774C290.325 184.042 292.441 187.509 295.322 189.805C297.438 191.516 300.769 193.137 305.631 193.137C309.278 193.137 315.715 192.236 322.243 185.303L326.07 189.445L326.16 189.4ZM538.783 102.642C535.361 78.5555 531.084 52.3528 520.28 14.6244C518.074 6.92563 512.987 2.24332 504.478 0.532489C498.806 -0.59306 490.748 1.02772 482.329 4.6745L474.856 7.96109C502.633 114.618 497.546 121.146 498.086 229.154H540.268V144.873L586.727 138.21V229.154H629V128.53C629 99.8509 613.559 90.3964 585.782 94.9436L538.783 102.642ZM455.093 226.948C463.196 224.697 470.94 221.59 477.782 217.989L466.303 181.566C460.585 184.042 452.302 187.104 444.559 189.31C436.14 191.696 428.037 193.136 423.49 192.056C421.374 191.561 419.438 190.84 417.638 189.895C415.792 188.949 414.126 187.734 412.551 186.338C410.029 184.042 408.184 181.161 406.923 177.694C405.798 174.497 405.212 170.806 405.212 166.664V154.958C405.212 151.266 405.798 147.934 406.968 144.918C408.184 141.766 409.984 139.11 412.415 136.904C417.052 132.627 423.13 130.466 430.648 130.466C438.166 130.466 453.022 137.354 461.846 141.496L478.233 111.287C472.29 106.829 463.962 102.327 455.183 98.8605C445.684 95.0786 435.78 92.5124 427.992 92.5124C408.139 92.5124 391.842 98.3652 380.677 109.216C369.828 119.796 363.66 135.283 363.66 155.003V166.709C363.66 177.064 365.146 186.158 368.072 194.082C370.953 201.871 375.32 208.534 381.128 214.117C386.98 219.745 393.147 223.977 400.486 226.768C407.959 229.559 416.782 231 427.992 231C437.086 231 446.314 229.559 455.093 227.128"/>
</mask>
<path d="M175.212 102.462L174.222 102.603L174.366 103.614L175.374 103.449L175.212 102.462ZM156.71 14.4443L157.671 14.17L157.671 14.1688L156.71 14.4443ZM140.863 0.352432L141.059 -0.628147L141.058 -0.628444L140.863 0.352432ZM118.714 4.49445L118.317 3.57683L118.311 3.57906L118.714 4.49445ZM111.241 7.78103L110.838 6.86564L110.058 7.20875L110.273 8.03343L111.241 7.78103ZM134.516 228.974L133.516 228.979L133.521 229.974H134.516V228.974ZM176.698 228.974V229.974H177.698V228.974H176.698ZM176.698 144.693L176.556 143.703L175.698 143.826V144.693H176.698ZM223.157 138.03H224.157V136.876L223.015 137.04L223.157 138.03ZM223.157 228.974H222.157V229.974H223.157V228.974ZM265.43 228.974V229.974H266.43V228.974H265.43ZM222.212 94.7635L222.05 93.7766L222.05 93.7766L222.212 94.7635ZM114.167 217.809L114.633 218.693L115.372 218.304L115.121 217.508L114.167 217.809ZM102.687 181.386L103.641 181.085L103.308 180.027L102.29 180.468L102.687 181.386ZM80.9435 189.13L81.2162 190.092L81.2175 190.091L80.9435 189.13ZM59.8747 191.876L60.1059 190.903L60.1026 190.902L59.8747 191.876ZM54.0223 189.715L54.4872 188.829L54.4782 188.825L54.0223 189.715ZM48.9352 186.158L48.2553 186.891L48.2636 186.899L48.2722 186.907L48.9352 186.158ZM43.3079 177.514L42.3646 177.846L42.3681 177.856L43.3079 177.514ZM43.3529 144.738L44.2852 145.1L44.2859 145.098L43.3529 144.738ZM48.8002 136.724L49.4722 137.465L49.4782 137.459L48.8002 136.724ZM98.2306 141.316L97.8057 142.221L98.6607 142.623L99.1102 141.792L98.2306 141.316ZM114.572 111.106L115.452 111.582L115.862 110.824L115.172 110.306L114.572 111.106ZM91.5228 98.6804L91.1529 99.6095L91.1555 99.6105L91.5228 98.6804ZM17.017 109.035L16.3201 108.318L16.3189 108.32L17.017 109.035ZM4.41182 193.902L3.47375 194.248L3.47394 194.249L4.41182 193.902ZM17.4672 213.937L18.1604 213.216L18.1602 213.216L17.4672 213.937ZM36.8252 226.588L36.4697 227.523L36.4735 227.524L36.8252 226.588ZM306.577 159.01L305.9 159.746L306.485 160.283L307.141 159.836L306.577 159.01ZM320.442 183.232L321.132 183.956L321.84 183.282L321.182 182.559L320.442 183.232ZM299.914 184.717L300.647 184.037L300.642 184.032L299.914 184.717ZM299.554 168.645L300.392 169.19L300.396 169.184L299.554 168.645ZM303.38 164.458L304.12 163.785L303.523 163.127L302.799 163.644L303.38 164.458ZM326.16 189.4L326.891 188.717L326.381 188.171L325.712 188.505L326.16 189.4ZM338.45 190.615L339.058 191.409L339.067 191.403L339.075 191.396L338.45 190.615ZM341.871 187.284L342.631 187.934L343.251 187.21L342.557 186.556L341.871 187.284ZM340.296 185.798L340.982 185.07L340.171 184.306L339.499 185.194L340.296 185.798ZM330.347 184.943L329.604 185.613V185.613L330.347 184.943ZM326.565 180.755L325.784 180.131L325.253 180.795L325.823 181.426L326.565 180.755ZM333.183 169.185L334.092 169.601L334.095 169.594L333.183 169.185ZM341.061 162.702L341.105 163.701L342.061 163.658V162.702H341.061ZM341.061 160.586H342.061V159.586H341.061V160.586ZM323.144 160.586V159.586H322.144V160.586H323.144ZM323.144 162.702H322.144V163.542L322.971 163.687L323.144 162.702ZM325.71 163.152L325.883 162.167L325.882 162.167L325.71 163.152ZM324.494 178.504L323.761 179.184L324.535 180.02L325.263 179.143L324.494 178.504ZM308.422 161.171L307.884 160.328L306.875 160.972L307.689 161.851L308.422 161.171ZM314.32 156.354L313.586 155.674L313.583 155.678L314.32 156.354ZM314.5 143.612L313.856 144.377L313.863 144.383L313.87 144.389L314.5 143.612ZM299.914 143.657L299.305 142.864L299.297 142.87L299.289 142.876L299.914 143.657ZM301.49 162.341L301.999 163.202L303.049 162.58L302.233 161.673L301.49 162.341ZM294.467 168.104L295.228 168.753L295.23 168.75L294.467 168.104ZM295.322 189.805L295.951 189.027L295.945 189.023L295.322 189.805ZM322.243 185.303L322.978 184.624L322.25 183.836L321.515 184.617L322.243 185.303ZM326.07 189.445L325.335 190.123L325.845 190.675L326.517 190.339L326.07 189.445ZM538.783 102.642L537.793 102.783L537.936 103.794L538.944 103.629L538.783 102.642ZM520.28 14.6244L521.241 14.3491L521.241 14.3489L520.28 14.6244ZM504.478 0.532489L504.676 -0.447892L504.673 -0.448387L504.478 0.532489ZM482.329 4.6745L481.932 3.75688L481.927 3.75912L482.329 4.6745ZM474.856 7.96109L474.454 7.0457L473.674 7.38867L473.889 8.21311L474.856 7.96109ZM498.086 229.154L497.086 229.159L497.091 230.154H498.086V229.154ZM540.268 229.154V230.154H541.268V229.154H540.268ZM540.268 144.873L540.126 143.883L539.268 144.006V144.873H540.268ZM586.727 138.21H587.727V137.056L586.586 137.22L586.727 138.21ZM586.727 229.154H585.727V230.154H586.727V229.154ZM629 229.154V230.154H630V229.154H629ZM585.782 94.9436L585.621 93.9567L585.62 93.9567L585.782 94.9436ZM477.782 217.989L478.248 218.874L478.987 218.485L478.736 217.688L477.782 217.989ZM466.303 181.566L467.256 181.265L466.923 180.207L465.905 180.648L466.303 181.566ZM444.559 189.31L444.831 190.272L444.833 190.271L444.559 189.31ZM423.49 192.056L423.721 191.083L423.718 191.082L423.49 192.056ZM417.638 189.895L418.102 189.009L418.094 189.005L417.638 189.895ZM412.551 186.338L411.877 187.078L411.887 187.087L412.551 186.338ZM406.923 177.694L405.98 178.026L405.983 178.036L406.923 177.694ZM406.968 144.918L407.9 145.28L407.901 145.278L406.968 144.918ZM412.415 136.904L413.087 137.645L413.093 137.639L412.415 136.904ZM461.846 141.496L461.421 142.402L462.275 142.802L462.725 141.973L461.846 141.496ZM478.233 111.287L479.112 111.763L479.523 111.005L478.833 110.487L478.233 111.287ZM455.183 98.8605L454.813 99.7895L454.816 99.7906L455.183 98.8605ZM380.677 109.216L379.98 108.498L379.979 108.5L380.677 109.216ZM368.072 194.082L367.134 194.428L367.134 194.429L368.072 194.082ZM381.128 214.117L381.821 213.396L381.821 213.396L381.128 214.117ZM400.486 226.768L400.13 227.703L400.136 227.705L400.486 226.768ZM176.202 102.322C172.777 78.2073 168.447 51.9566 157.671 14.17L155.748 14.7185C166.491 52.3888 170.805 78.5436 174.222 102.603L176.202 102.322ZM157.671 14.1688C156.525 10.1703 154.614 6.90113 151.835 4.40841C149.058 1.91793 145.472 0.254487 141.059 -0.628146L140.667 1.33301C144.808 2.16121 148.043 3.6943 150.499 5.89734C152.953 8.09814 154.688 11.0194 155.748 14.7197L157.671 14.1688ZM141.058 -0.628444C135.089 -1.81287 126.803 -0.0991781 118.317 3.57684L119.112 5.41205C127.463 1.79451 135.293 0.266638 140.669 1.33331L141.058 -0.628444ZM118.311 3.57906L110.838 6.86564L111.644 8.69642L119.117 5.40983L118.311 3.57906ZM110.273 8.03343C124.181 61.3492 129.846 89.5762 132.112 117.951C134.381 146.366 133.245 174.917 133.516 228.979L135.516 228.969C135.246 175.023 136.383 146.306 134.106 117.791C131.825 89.2355 126.123 60.8699 112.209 7.52863L110.273 8.03343ZM134.516 229.974H176.698V227.974H134.516V229.974ZM177.698 228.974V144.693H175.698V228.974H177.698ZM176.84 145.683L223.299 139.019L223.015 137.04L176.556 143.703L176.84 145.683ZM222.157 138.03V228.974H224.157V138.03H222.157ZM223.157 229.974H265.43V227.974H223.157V229.974ZM266.43 228.974V128.35H264.43V228.974H266.43ZM266.43 128.35C266.43 113.854 262.525 103.938 254.829 98.2906C247.172 92.6723 236.033 91.4875 222.05 93.7766L222.373 95.7503C236.167 93.4922 246.638 94.7611 253.645 99.9031C260.614 105.016 264.43 114.167 264.43 128.35H266.43ZM222.05 93.7766L175.051 101.475L175.374 103.449L222.373 95.7503L222.05 93.7766ZM91.7455 227.731C99.9171 225.461 107.727 222.329 114.633 218.693L113.701 216.924C106.922 220.492 99.2452 223.572 91.2101 225.804L91.7455 227.731ZM115.121 217.508L103.641 181.085L101.734 181.686L113.213 218.109L115.121 217.508ZM102.29 180.468C96.6099 182.928 88.3677 185.975 80.6694 188.168L81.2175 190.091C89.0056 187.872 97.3302 184.796 103.085 182.303L102.29 180.468ZM80.6708 188.167C76.4873 189.353 72.403 190.298 68.8152 190.813C65.2021 191.331 62.1916 191.399 60.1059 190.903L59.6435 192.849C62.1048 193.434 65.4194 193.321 69.0993 192.793C72.8046 192.261 76.9811 191.292 81.2162 190.092L80.6708 188.167ZM60.1026 190.902C58.0661 190.426 56.2102 189.734 54.4872 188.829L53.5575 190.6C55.4359 191.587 57.4517 192.336 59.6468 192.85L60.1026 190.902ZM54.4782 188.825C52.7252 187.927 51.1283 186.765 49.5983 185.41L48.2722 186.907C49.8934 188.343 51.6279 189.612 53.5664 190.605L54.4782 188.825ZM49.6152 185.425C47.2635 183.244 45.4577 180.5 44.2477 177.172L42.3681 177.856C43.6791 181.461 45.6549 184.48 48.2553 186.891L49.6152 185.425ZM44.2511 177.182C43.1695 174.11 42.5972 170.533 42.5972 166.484H40.5972C40.5972 170.718 41.1954 174.525 42.3647 177.846L44.2511 177.182ZM42.5972 166.484V154.778H40.5972V166.484H42.5972ZM42.5972 154.778C42.5972 151.193 43.1651 147.986 44.2852 145.1L42.4206 144.376C41.1998 147.522 40.5972 150.979 40.5972 154.778H42.5972ZM44.2859 145.098C45.4475 142.086 47.161 139.562 49.4722 137.465L48.1282 135.983C45.5773 138.298 43.6894 141.087 42.4199 144.378L44.2859 145.098ZM49.4782 137.459C53.8976 133.383 59.7174 131.286 67.0327 131.286V129.286C59.3118 129.286 52.9766 131.511 48.1222 135.989L49.4782 137.459ZM67.0327 131.286C70.5806 131.286 76.0114 132.935 81.7795 135.18C87.5007 137.406 93.3923 140.15 97.8057 142.221L98.6555 140.411C94.2452 138.341 88.297 135.57 82.5047 133.316C76.7593 131.08 71.003 129.286 67.0327 129.286V131.286ZM99.1102 141.792L115.452 111.582L113.693 110.631L97.351 140.84L99.1102 141.792ZM115.172 110.306C109.143 105.784 100.732 101.242 91.8901 97.7503L91.1555 99.6105C99.871 103.052 108.117 107.514 113.972 111.906L115.172 110.306ZM91.8927 97.7513C82.3417 93.9487 72.3018 91.3323 64.3316 91.3323V93.3323C71.9378 93.3323 81.7061 95.8484 91.1529 99.6095L91.8927 97.7513ZM64.3316 91.3323C44.2861 91.3323 27.715 97.2442 16.3201 108.318L17.714 109.753C28.6483 99.1261 44.6707 93.3323 64.3316 93.3323V91.3323ZM16.3189 108.32C5.2395 119.124 -1 134.89 -1 154.823H1C1 135.316 7.0956 120.107 17.7152 109.751L16.3189 108.32ZM-1 154.823V166.529H1V154.823H-1ZM-1 166.529C-1 176.978 0.499174 186.193 3.47375 194.248L5.3499 193.555C2.47205 185.763 1 176.789 1 166.529H-1ZM3.47394 194.249C6.40675 202.177 10.8565 208.969 16.7742 214.658L18.1602 213.216C12.4631 207.739 8.17928 201.204 5.34971 193.555L3.47394 194.249ZM16.7741 214.657C22.7032 220.359 28.982 224.674 36.4697 227.523L37.1808 225.653C29.9924 222.919 23.936 218.77 18.1604 213.216L16.7741 214.657ZM36.4735 227.524C44.0433 230.369 53.0378 231.82 64.2866 231.82V229.82C53.2061 229.82 44.4632 228.39 37.177 225.652L36.4735 227.524ZM64.2866 231.82C73.4836 231.82 82.8027 230.363 91.6547 227.912L91.1209 225.984C82.4156 228.395 73.277 229.82 64.2866 229.82V231.82ZM307.253 158.274C303.958 155.245 302.31 152.889 302.31 149.915H300.31C300.31 153.786 302.533 156.652 305.9 159.746L307.253 158.274ZM302.31 149.915C302.31 148.558 302.753 147.4 303.529 146.588C304.297 145.785 305.465 145.243 307.072 145.243V143.243C304.987 143.243 303.274 143.961 302.084 145.206C300.901 146.443 300.31 148.122 300.31 149.915H302.31ZM307.072 145.243C308.641 145.243 309.557 145.797 310.122 146.578C310.725 147.414 311.024 148.648 311.024 150.141H313.024C313.024 148.437 312.692 146.721 311.743 145.407C310.754 144.038 309.195 143.243 307.072 143.243V145.243ZM311.024 150.141C311.024 151.268 310.851 152.518 310.167 153.847C309.481 155.18 308.245 156.66 306.013 158.184L307.141 159.836C309.591 158.163 311.078 156.447 311.945 154.763C312.814 153.075 313.024 151.49 313.024 150.141H311.024ZM319.753 182.507C315.32 186.728 310.834 187.139 308.738 187.139V189.139C311.143 189.139 316.201 188.65 321.132 183.956L319.753 182.507ZM308.738 187.139C305.497 187.139 302.741 186.293 300.647 184.037L299.181 185.398C301.769 188.185 305.135 189.139 308.738 189.139V187.139ZM300.642 184.032C298.66 181.928 298.078 179.637 298.078 176.974H296.078C296.078 179.983 296.756 182.824 299.186 185.403L300.642 184.032ZM298.078 176.974C298.078 173.841 298.739 171.733 300.392 169.189L298.715 168.1C296.857 170.958 296.078 173.443 296.078 176.974H298.078ZM300.396 169.184C301.473 167.503 302.517 166.303 303.962 165.271L302.799 163.644C301.093 164.863 299.885 166.274 298.712 168.105L300.396 169.184ZM302.64 165.13L319.702 183.904L321.182 182.559L304.12 163.785L302.64 165.13ZM325.429 190.082C326.65 191.391 329.135 194.092 332.778 194.092V192.092C330.118 192.092 328.19 190.11 326.891 188.717L325.429 190.082ZM332.778 194.092C335.546 194.092 337.735 192.424 339.058 191.409L337.841 189.822C336.464 190.878 334.781 192.092 332.778 192.092V194.092ZM339.075 191.396C340.481 190.271 341.515 189.235 342.631 187.934L341.112 186.633C340.066 187.853 339.12 188.798 337.825 189.834L339.075 191.396ZM342.557 186.556L340.982 185.07L339.61 186.525L341.185 188.011L342.557 186.556ZM339.499 185.194C338.549 186.447 337.036 187.139 335.884 187.139V189.139C337.703 189.139 339.791 188.12 341.093 186.402L339.499 185.194ZM335.884 187.139C334.976 187.139 334.099 186.79 333.266 186.233C332.432 185.675 331.697 184.946 331.089 184.272L329.604 185.613C330.256 186.335 331.12 187.204 332.154 187.895C333.19 188.588 334.451 189.139 335.884 189.139V187.139ZM331.089 184.272L327.307 180.085L325.823 181.426L329.604 185.613L331.089 184.272ZM327.346 181.38C330.857 176.991 332.389 173.321 334.092 169.601L332.273 168.769C330.555 172.522 329.116 175.965 325.784 180.131L327.346 181.38ZM334.095 169.594C335.105 167.344 336.687 163.896 341.105 163.701L341.017 161.703C335.261 161.957 333.241 166.614 332.27 168.775L334.095 169.594ZM342.061 162.702V160.586H340.061V162.702H342.061ZM341.061 159.586H323.144V161.586H341.061V159.586ZM322.144 160.586V162.702H324.144V160.586H322.144ZM322.971 163.687L325.537 164.137L325.882 162.167L323.316 161.717L322.971 163.687ZM325.537 164.137C326.844 164.366 327.444 165.05 327.762 165.738C328.106 166.483 328.131 167.281 328.131 167.654H330.131C330.131 167.217 330.111 166.056 329.578 164.9C329.017 163.685 327.907 162.523 325.883 162.167L325.537 164.137ZM328.131 167.654C328.131 169.324 327.582 171.223 326.732 173.065C325.886 174.898 324.774 176.602 323.725 177.865L325.263 179.143C326.42 177.75 327.627 175.898 328.548 173.904C329.464 171.919 330.131 169.721 330.131 167.654H328.131ZM325.227 177.824L309.156 160.491L307.689 161.851L323.761 179.184L325.227 177.824ZM308.961 162.014C311.131 160.628 313.499 158.729 315.057 157.029L313.583 155.678C312.169 157.22 309.946 159.012 307.884 160.328L308.961 162.014ZM315.053 157.033C316.864 155.08 318.291 152.642 318.291 149.6H316.291C316.291 151.961 315.197 153.936 313.586 155.674L315.053 157.033ZM318.291 149.6C318.291 146.818 317.026 144.373 315.13 142.836L313.87 144.389C315.305 145.553 316.291 147.43 316.291 149.6H318.291ZM315.144 142.847C313.193 141.204 310.32 140.406 307.117 140.406V142.406C310.036 142.406 312.386 143.139 313.856 144.377L315.144 142.847ZM307.117 140.406C303.309 140.406 300.804 141.715 299.305 142.864L300.522 144.451C301.725 143.529 303.812 142.406 307.117 142.406V140.406ZM299.289 142.876C296.007 145.503 295.583 149.041 295.583 151.401H297.583C297.583 149.259 297.969 146.494 300.539 144.438L299.289 142.876ZM295.583 151.401C295.583 154.595 296.589 158.385 300.746 163.01L302.233 161.673C298.377 157.383 297.583 154.06 297.583 151.401H295.583ZM300.98 161.481C298.484 162.96 295.776 165.009 293.703 167.458L295.23 168.75C297.119 166.518 299.633 164.604 301.999 163.202L300.98 161.481ZM293.706 167.455C290.974 170.658 289.325 174.077 289.325 178.774H291.325C291.325 174.648 292.737 171.674 295.228 168.753L293.706 167.455ZM289.325 178.774C289.325 184.357 291.588 188.108 294.699 190.587L295.945 189.023C293.294 186.91 291.325 183.727 291.325 178.774H289.325ZM294.693 190.582C296.978 192.43 300.529 194.137 305.631 194.137V192.137C301.01 192.137 297.898 190.602 295.951 189.027L294.693 190.582ZM305.631 194.137C309.484 194.137 316.212 193.168 322.971 185.988L321.515 184.617C315.219 191.304 309.072 192.137 305.631 192.137V194.137ZM321.509 185.981L325.335 190.123L326.804 188.766L322.978 184.624L321.509 185.981ZM326.517 190.339L326.607 190.294L325.712 188.505L325.622 188.551L326.517 190.339ZM539.773 102.502C536.348 78.3885 532.063 52.137 521.241 14.3491L519.319 14.8997C530.106 52.5686 534.375 78.7226 537.793 102.783L539.773 102.502ZM521.241 14.3489C520.096 10.3505 518.184 7.08172 515.411 4.58922C512.64 2.09885 509.066 0.435 504.676 -0.447888L504.281 1.51287C508.399 2.34081 511.623 3.87353 514.074 6.07672C516.523 8.27777 518.258 11.1995 519.319 14.8998L521.241 14.3489ZM504.673 -0.448387C498.704 -1.63282 490.418 0.0808799 481.932 3.7569L482.727 5.59211C491.078 1.97457 498.908 0.446696 504.284 1.51337L504.673 -0.448387ZM481.927 3.75912L474.454 7.0457L475.259 8.87647L482.732 5.58989L481.927 3.75912ZM473.889 8.21311C487.773 61.5289 493.427 89.756 495.688 118.131C497.952 146.546 496.815 175.097 497.086 229.159L499.086 229.149C498.816 175.203 499.953 146.486 497.681 117.972C495.406 89.4159 489.716 61.0504 475.824 7.70907L473.889 8.21311ZM498.086 230.154H540.268V228.154H498.086V230.154ZM541.268 229.154V144.873H539.268V229.154H541.268ZM540.41 145.863L586.869 139.2L586.586 137.22L540.126 143.883L540.41 145.863ZM585.727 138.21V229.154H587.727V138.21H585.727ZM586.727 230.154H629V228.154H586.727V230.154ZM630 229.154V128.53H628V229.154H630ZM630 128.53C630 114.034 626.095 104.118 618.399 98.4707C610.742 92.8524 599.603 91.6676 585.621 93.9567L585.944 95.9304C599.737 93.6723 610.208 94.9412 617.216 100.083C624.184 105.196 628 114.347 628 128.53H630ZM585.62 93.9567L538.621 101.655L538.944 103.629L585.944 95.9304L585.62 93.9567ZM455.361 227.911C463.532 225.641 471.342 222.509 478.248 218.874L477.317 217.104C470.537 220.672 462.86 223.752 454.825 225.984L455.361 227.911ZM478.736 217.688L467.256 181.265L465.349 181.867L476.829 218.289L478.736 217.688ZM465.905 180.648C460.225 183.108 451.983 186.155 444.285 188.348L444.833 190.271C452.621 188.052 460.945 184.976 466.7 182.484L465.905 180.648ZM444.286 188.348C440.103 189.533 436.018 190.478 432.43 190.993C428.817 191.512 425.807 191.579 423.721 191.083L423.259 193.029C425.72 193.614 429.035 193.501 432.715 192.973C436.42 192.441 440.596 191.472 444.831 190.272L444.286 188.348ZM423.718 191.082C421.681 190.606 419.826 189.914 418.102 189.01L417.173 190.78C419.051 191.767 421.067 192.516 423.262 193.03L423.718 191.082ZM418.094 189.005C416.34 188.107 414.744 186.945 413.214 185.59L411.887 187.087C413.509 188.523 415.243 189.792 417.182 190.785L418.094 189.005ZM413.224 185.599C410.837 183.425 409.076 180.687 407.863 177.352L405.983 178.036C407.292 181.634 409.221 184.659 411.877 187.078L413.224 185.599ZM407.866 177.362C406.785 174.29 406.212 170.713 406.212 166.664H404.212C404.212 170.898 404.811 174.705 405.98 178.026L407.866 177.362ZM406.212 166.664V154.958H404.212V166.664H406.212ZM406.212 154.958C406.212 151.373 406.78 148.166 407.9 145.28L406.036 144.556C404.815 147.702 404.212 151.159 404.212 154.958H406.212ZM407.901 145.278C409.063 142.266 410.776 139.742 413.087 137.645L411.743 136.163C409.193 138.478 407.305 141.267 406.035 144.558L407.901 145.278ZM413.093 137.639C417.513 133.563 423.333 131.466 430.648 131.466V129.466C422.927 129.466 416.592 131.691 411.737 136.169L413.093 137.639ZM430.648 131.466C434.196 131.466 439.627 133.116 445.395 135.36C451.116 137.586 457.008 140.33 461.421 142.402L462.271 140.591C457.861 138.521 451.912 135.75 446.12 133.496C440.375 131.26 434.618 129.466 430.648 129.466V131.466ZM462.725 141.973L479.112 111.763L477.354 110.81L460.967 141.019L462.725 141.973ZM478.833 110.487C472.803 105.964 464.392 101.422 455.55 97.9304L454.816 99.7906C463.531 103.232 471.777 107.694 477.633 112.087L478.833 110.487ZM455.553 97.9314C446.002 94.1288 435.962 91.5124 427.992 91.5124V93.5124C435.598 93.5124 445.366 96.0285 454.813 99.7895L455.553 97.9314ZM427.992 91.5124C407.946 91.5124 391.375 97.4243 379.98 108.498L381.374 109.933C392.309 99.3062 408.331 93.5124 427.992 93.5124V91.5124ZM379.979 108.5C368.9 119.304 362.66 135.07 362.66 155.003H364.66C364.66 135.497 370.756 120.287 381.375 109.931L379.979 108.5ZM362.66 155.003V166.709H364.66V155.003H362.66ZM362.66 166.709C362.66 177.158 364.159 186.374 367.134 194.428L369.01 193.736C366.132 185.943 364.66 176.969 364.66 166.709H362.66ZM367.134 194.429C370.067 202.357 374.517 209.149 380.434 214.838L381.821 213.396C376.123 207.919 371.84 201.384 369.01 193.735L367.134 194.429ZM380.434 214.838C386.364 220.539 392.642 224.854 400.13 227.703L400.841 225.833C393.653 223.099 387.596 218.95 381.821 213.396L380.434 214.838ZM400.136 227.705C407.749 230.548 416.697 232 427.992 232V230C416.867 230 408.168 228.57 400.835 225.831L400.136 227.705ZM427.992 232C437.189 232 446.508 230.543 455.36 228.092L454.826 226.164C446.121 228.575 436.982 230 427.992 230V232Z" fill="#E4E4E4" mask="url(#path-1-inside-1_423_33368)"/>
</svg>
