<svg width="238" height="231" viewBox="0 0 238 231" fill="none" xmlns="http://www.w3.org/2000/svg">
<mask id="path-1-inside-1_699_31059" fill="white">
<path d="M139.212 102.462C135.791 78.3755 131.469 52.1727 120.71 14.4443C118.504 6.74551 113.417 2.06327 104.863 0.352432C99.1909 -0.773118 91.1325 0.847665 82.7141 4.49445L75.241 7.78103C103.062 114.438 97.9754 120.966 98.5156 228.974H140.698V144.693L187.157 138.03V228.974H229.43V128.35C229.43 99.6709 213.988 90.2162 186.212 94.7635L139.212 102.462ZM55.4778 226.768C63.5812 224.517 71.3243 221.41 78.1672 217.809L66.6874 181.386C60.9701 183.862 52.6867 186.923 44.9435 189.13C36.525 191.516 28.4216 192.956 23.8747 191.876C21.7589 191.381 19.8231 190.66 18.0223 189.715C16.1766 188.769 14.5109 187.554 12.9352 186.158C10.4592 183.862 8.56842 180.981 7.3079 177.514C6.18243 174.317 5.59719 170.626 5.59719 166.484V154.778C5.59719 151.086 6.18243 147.754 7.35292 144.738C8.56842 141.586 10.3692 138.93 12.8002 136.724C17.4371 132.447 23.5146 130.286 31.0327 130.286C38.5508 130.286 53.407 137.174 62.2306 141.316L78.5723 111.106C72.6299 106.649 64.3015 102.147 55.5228 98.6804C46.0239 94.8986 36.1198 92.3323 28.3316 92.3323C8.47838 92.3323 -7.81835 98.1852 -18.983 109.035C-29.8325 119.616 -36 135.103 -36 154.823V166.529C-36 176.884 -34.5144 185.978 -31.5882 193.902C-28.707 201.691 -24.3402 208.354 -18.5328 213.937C-12.6804 219.564 -6.51281 223.797 0.825222 226.588C8.25329 229.379 17.122 230.82 28.2866 230.82C37.3803 230.82 46.6091 229.379 55.3878 226.948M270.577 159.01C267.245 155.948 265.31 153.337 265.31 149.915C265.31 146.764 267.38 144.243 271.072 144.243C274.763 144.243 276.024 146.944 276.024 150.141C276.024 152.617 275.259 155.813 270.577 159.01ZM284.442 183.232C279.76 187.689 274.988 188.139 272.738 188.139C269.316 188.139 266.255 187.239 263.914 184.717C261.708 182.376 261.078 179.81 261.078 176.974C261.078 173.642 261.798 171.346 263.554 168.645C264.679 166.889 265.805 165.583 267.38 164.458L284.442 183.232ZM290.16 189.4C291.42 190.75 293.626 193.092 296.778 193.092C299.164 193.092 301.099 191.651 302.45 190.615C303.8 189.535 304.791 188.544 305.871 187.284L304.296 185.798C303.17 187.284 301.369 188.139 299.884 188.139C297.543 188.139 295.607 186.338 294.347 184.943L290.565 180.755C293.986 176.478 295.472 172.922 297.183 169.185C298.173 166.979 299.974 162.927 305.061 162.702V160.586H287.144V162.702L289.71 163.152C293.041 163.737 293.131 166.844 293.131 167.654C293.131 171.391 290.7 175.848 288.494 178.504L272.422 161.171C274.538 159.82 276.834 157.974 278.32 156.354C280.031 154.508 281.291 152.302 281.291 149.6C281.291 147.124 280.166 144.963 278.5 143.612C276.789 142.172 274.178 141.406 271.117 141.406C267.56 141.406 265.264 142.622 263.914 143.657C260.988 145.998 260.583 149.15 260.583 151.401C260.583 154.328 261.483 157.884 265.49 162.341C263.059 163.782 260.448 165.763 258.467 168.104C255.856 171.166 254.325 174.362 254.325 178.774C254.325 184.042 256.441 187.509 259.322 189.805C261.438 191.516 264.769 193.137 269.631 193.137C273.278 193.137 279.715 192.236 286.243 185.303L290.07 189.445L290.16 189.4ZM502.783 102.642C499.361 78.5555 495.084 52.3528 484.28 14.6244C482.074 6.92563 476.987 2.24332 468.478 0.532489C462.806 -0.59306 454.748 1.02772 446.329 4.6745L438.856 7.96109C466.633 114.618 461.546 121.146 462.086 229.154H504.268V144.873L550.727 138.21V229.154H593V128.53C593 99.8509 577.559 90.3964 549.782 94.9436L502.783 102.642ZM419.093 226.948C427.196 224.697 434.94 221.59 441.782 217.989L430.303 181.566C424.585 184.042 416.302 187.104 408.559 189.31C400.14 191.696 392.037 193.136 387.49 192.056C385.374 191.561 383.438 190.84 381.638 189.895C379.792 188.949 378.126 187.734 376.551 186.338C374.029 184.042 372.184 181.161 370.923 177.694C369.798 174.497 369.212 170.806 369.212 166.664V154.958C369.212 151.266 369.798 147.934 370.968 144.918C372.184 141.766 373.984 139.11 376.415 136.904C381.052 132.627 387.13 130.466 394.648 130.466C402.166 130.466 417.022 137.354 425.846 141.496L442.233 111.287C436.29 106.829 427.962 102.327 419.183 98.8605C409.684 95.0786 399.78 92.5124 391.992 92.5124C372.139 92.5124 355.842 98.3652 344.677 109.216C333.828 119.796 327.66 135.283 327.66 155.003V166.709C327.66 177.064 329.146 186.158 332.072 194.082C334.953 201.871 339.32 208.534 345.128 214.117C350.98 219.745 357.147 223.977 364.486 226.768C371.959 229.559 380.782 231 391.992 231C401.086 231 410.314 229.559 419.093 227.128"/>
</mask>
<path d="M139.212 102.462L138.222 102.603L138.366 103.614L139.374 103.449L139.212 102.462ZM120.71 14.4443L121.671 14.17L121.671 14.1688L120.71 14.4443ZM104.863 0.352432L105.059 -0.628147L105.058 -0.628444L104.863 0.352432ZM82.7141 4.49445L82.3166 3.57683L82.3115 3.57906L82.7141 4.49445ZM75.241 7.78103L74.8384 6.86564L74.0582 7.20875L74.2734 8.03343L75.241 7.78103ZM98.5156 228.974L97.5156 228.979L97.5206 229.974H98.5156V228.974ZM140.698 228.974V229.974H141.698V228.974H140.698ZM140.698 144.693L140.556 143.703L139.698 143.826V144.693H140.698ZM187.157 138.03H188.157V136.876L187.015 137.04L187.157 138.03ZM187.157 228.974H186.157V229.974H187.157V228.974ZM229.43 228.974V229.974H230.43V228.974H229.43ZM186.212 94.7635L186.05 93.7766L186.05 93.7766L186.212 94.7635ZM78.1672 217.809L78.6329 218.693L79.372 218.304L79.1209 217.508L78.1672 217.809ZM66.6874 181.386L67.6412 181.085L67.3078 180.027L66.29 180.468L66.6874 181.386ZM44.9435 189.13L45.2162 190.092L45.2175 190.091L44.9435 189.13ZM23.8747 191.876L24.1059 190.903L24.1026 190.902L23.8747 191.876ZM18.0223 189.715L18.4872 188.829L18.4782 188.825L18.0223 189.715ZM12.9352 186.158L12.2553 186.891L12.2636 186.899L12.2722 186.907L12.9352 186.158ZM7.3079 177.514L6.3646 177.846L6.3681 177.856L7.3079 177.514ZM7.35292 144.738L8.28519 145.1L8.28593 145.098L7.35292 144.738ZM12.8002 136.724L13.4722 137.465L13.4782 137.459L12.8002 136.724ZM62.2306 141.316L61.8057 142.221L62.6607 142.623L63.1102 141.792L62.2306 141.316ZM78.5723 111.106L79.4519 111.582L79.8622 110.824L79.1724 110.306L78.5723 111.106ZM55.5228 98.6804L55.1529 99.6095L55.1555 99.6105L55.5228 98.6804ZM-18.983 109.035L-19.6799 108.318L-19.6811 108.32L-18.983 109.035ZM-31.5882 193.902L-32.5263 194.248L-32.5261 194.249L-31.5882 193.902ZM-18.5328 213.937L-17.8396 213.216L-17.8398 213.216L-18.5328 213.937ZM0.825222 226.588L0.469677 227.523L0.473454 227.524L0.825222 226.588ZM270.577 159.01L269.9 159.746L270.485 160.283L271.141 159.836L270.577 159.01ZM284.442 183.232L285.132 183.956L285.84 183.282L285.182 182.559L284.442 183.232ZM263.914 184.717L264.647 184.037L264.642 184.032L263.914 184.717ZM263.554 168.645L264.392 169.19L264.396 169.184L263.554 168.645ZM267.38 164.458L268.12 163.785L267.523 163.127L266.799 163.644L267.38 164.458ZM290.16 189.4L290.891 188.717L290.381 188.171L289.712 188.505L290.16 189.4ZM302.45 190.615L303.058 191.409L303.067 191.403L303.075 191.396L302.45 190.615ZM305.871 187.284L306.631 187.934L307.251 187.21L306.557 186.556L305.871 187.284ZM304.296 185.798L304.982 185.07L304.171 184.306L303.499 185.194L304.296 185.798ZM294.347 184.943L293.604 185.613V185.613L294.347 184.943ZM290.565 180.755L289.784 180.131L289.253 180.795L289.823 181.426L290.565 180.755ZM297.183 169.185L298.092 169.601L298.095 169.594L297.183 169.185ZM305.061 162.702L305.105 163.701L306.061 163.658V162.702H305.061ZM305.061 160.586H306.061V159.586H305.061V160.586ZM287.144 160.586V159.586H286.144V160.586H287.144ZM287.144 162.702H286.144V163.542L286.971 163.687L287.144 162.702ZM289.71 163.152L289.883 162.167L289.882 162.167L289.71 163.152ZM288.494 178.504L287.761 179.184L288.535 180.02L289.263 179.143L288.494 178.504ZM272.422 161.171L271.884 160.328L270.875 160.972L271.689 161.851L272.422 161.171ZM278.32 156.354L277.586 155.674L277.583 155.678L278.32 156.354ZM278.5 143.612L277.856 144.377L277.863 144.383L277.87 144.389L278.5 143.612ZM263.914 143.657L263.305 142.864L263.297 142.87L263.289 142.876L263.914 143.657ZM265.49 162.341L265.999 163.202L267.049 162.58L266.233 161.673L265.49 162.341ZM258.467 168.104L259.228 168.753L259.23 168.75L258.467 168.104ZM259.322 189.805L259.951 189.027L259.945 189.023L259.322 189.805ZM286.243 185.303L286.978 184.624L286.25 183.836L285.515 184.617L286.243 185.303ZM290.07 189.445L289.335 190.123L289.845 190.675L290.517 190.339L290.07 189.445ZM502.783 102.642L501.793 102.783L501.936 103.794L502.944 103.629L502.783 102.642ZM484.28 14.6244L485.241 14.3491L485.241 14.3489L484.28 14.6244ZM468.478 0.532489L468.676 -0.447892L468.673 -0.448387L468.478 0.532489ZM446.329 4.6745L445.932 3.75688L445.927 3.75912L446.329 4.6745ZM438.856 7.96109L438.454 7.0457L437.674 7.38867L437.889 8.21311L438.856 7.96109ZM462.086 229.154L461.086 229.159L461.091 230.154H462.086V229.154ZM504.268 229.154V230.154H505.268V229.154H504.268ZM504.268 144.873L504.126 143.883L503.268 144.006V144.873H504.268ZM550.727 138.21H551.727V137.056L550.586 137.22L550.727 138.21ZM550.727 229.154H549.727V230.154H550.727V229.154ZM593 229.154V230.154H594V229.154H593ZM549.782 94.9436L549.621 93.9567L549.62 93.9567L549.782 94.9436ZM441.782 217.989L442.248 218.874L442.987 218.485L442.736 217.688L441.782 217.989ZM430.303 181.566L431.256 181.265L430.923 180.207L429.905 180.648L430.303 181.566ZM408.559 189.31L408.831 190.272L408.833 190.271L408.559 189.31ZM387.49 192.056L387.721 191.083L387.718 191.082L387.49 192.056ZM381.638 189.895L382.102 189.009L382.094 189.005L381.638 189.895ZM376.551 186.338L375.877 187.078L375.887 187.087L376.551 186.338ZM370.923 177.694L369.98 178.026L369.983 178.036L370.923 177.694ZM370.968 144.918L371.9 145.28L371.901 145.278L370.968 144.918ZM376.415 136.904L377.087 137.645L377.093 137.639L376.415 136.904ZM425.846 141.496L425.421 142.402L426.275 142.802L426.725 141.973L425.846 141.496ZM442.233 111.287L443.112 111.763L443.523 111.005L442.833 110.487L442.233 111.287ZM419.183 98.8605L418.813 99.7895L418.816 99.7906L419.183 98.8605ZM344.677 109.216L343.98 108.498L343.979 108.5L344.677 109.216ZM332.072 194.082L331.134 194.428L331.134 194.429L332.072 194.082ZM345.128 214.117L345.821 213.396L345.821 213.396L345.128 214.117ZM364.486 226.768L364.13 227.703L364.136 227.705L364.486 226.768ZM140.202 102.322C136.777 78.2073 132.447 51.9566 121.671 14.17L119.748 14.7185C130.491 52.3888 134.805 78.5436 138.222 102.603L140.202 102.322ZM121.671 14.1688C120.525 10.1703 118.614 6.90113 115.835 4.40841C113.058 1.91793 109.472 0.254487 105.059 -0.628146L104.667 1.33301C108.808 2.16121 112.043 3.6943 114.499 5.89734C116.953 8.09814 118.688 11.0194 119.748 14.7197L121.671 14.1688ZM105.058 -0.628444C99.0888 -1.81287 90.8025 -0.0991781 82.3166 3.57684L83.1116 5.41205C91.4625 1.79451 99.293 0.266638 104.669 1.33331L105.058 -0.628444ZM82.3115 3.57906L74.8384 6.86564L75.6435 8.69642L83.1166 5.40983L82.3115 3.57906ZM74.2734 8.03343C88.1808 61.3492 93.8457 89.5762 96.1119 117.951C98.3814 146.366 97.2452 174.917 97.5156 228.979L99.5156 228.969C99.2458 175.023 100.383 146.306 98.1056 117.791C95.8249 89.2355 90.1227 60.8699 76.2086 7.52863L74.2734 8.03343ZM98.5156 229.974H140.698V227.974H98.5156V229.974ZM141.698 228.974V144.693H139.698V228.974H141.698ZM140.84 145.683L187.299 139.019L187.015 137.04L140.556 143.703L140.84 145.683ZM186.157 138.03V228.974H188.157V138.03H186.157ZM187.157 229.974H229.43V227.974H187.157V229.974ZM230.43 228.974V128.35H228.43V228.974H230.43ZM230.43 128.35C230.43 113.854 226.525 103.938 218.829 98.2906C211.172 92.6723 200.033 91.4875 186.05 93.7766L186.373 95.7503C200.167 93.4922 210.638 94.7611 217.645 99.9031C224.614 105.016 228.43 114.167 228.43 128.35H230.43ZM186.05 93.7766L139.051 101.475L139.374 103.449L186.373 95.7503L186.05 93.7766ZM55.7455 227.731C63.9171 225.461 71.7268 222.329 78.6329 218.693L77.7014 216.924C70.9219 220.492 63.2452 223.572 55.2101 225.804L55.7455 227.731ZM79.1209 217.508L67.6412 181.085L65.7337 181.686L77.2134 218.109L79.1209 217.508ZM66.29 180.468C60.6099 182.928 52.3677 185.975 44.6694 188.168L45.2175 190.091C53.0056 187.872 61.3302 184.796 67.0849 182.303L66.29 180.468ZM44.6708 188.167C40.4873 189.353 36.403 190.298 32.8152 190.813C29.2021 191.331 26.1916 191.399 24.1059 190.903L23.6435 192.849C26.1048 193.434 29.4194 193.321 33.0993 192.793C36.8046 192.261 40.9811 191.292 45.2162 190.092L44.6708 188.167ZM24.1026 190.902C22.0661 190.426 20.2102 189.734 18.4872 188.829L17.5575 190.6C19.4359 191.587 21.4517 192.336 23.6468 192.85L24.1026 190.902ZM18.4782 188.825C16.7252 187.927 15.1283 186.765 13.5983 185.41L12.2722 186.907C13.8934 188.343 15.6279 189.612 17.5664 190.605L18.4782 188.825ZM13.6152 185.425C11.2635 183.244 9.45771 180.5 8.2477 177.172L6.3681 177.856C7.67913 181.461 9.65491 184.48 12.2553 186.891L13.6152 185.425ZM8.25114 177.182C7.16951 174.11 6.59719 170.533 6.59719 166.484H4.59719C4.59719 170.718 5.19536 174.525 6.36465 177.846L8.25114 177.182ZM6.59719 166.484V154.778H4.59719V166.484H6.59719ZM6.59719 154.778C6.59719 151.193 7.16506 147.986 8.28519 145.1L6.42064 144.376C5.19981 147.522 4.59719 150.979 4.59719 154.778H6.59719ZM8.28593 145.098C9.44745 142.086 11.161 139.562 13.4722 137.465L12.1282 135.983C9.57732 138.298 7.68939 141.087 6.41991 144.378L8.28593 145.098ZM13.4782 137.459C17.8976 133.383 23.7174 131.286 31.0327 131.286V129.286C23.3118 129.286 16.9766 131.511 12.1222 135.989L13.4782 137.459ZM31.0327 131.286C34.5806 131.286 40.0114 132.935 45.7795 135.18C51.5007 137.406 57.3923 140.15 61.8057 142.221L62.6555 140.411C58.2452 138.341 52.297 135.57 46.5047 133.316C40.7593 131.08 35.003 129.286 31.0327 129.286V131.286ZM63.1102 141.792L79.4519 111.582L77.6928 110.631L61.351 140.84L63.1102 141.792ZM79.1724 110.306C73.1432 105.784 64.7319 101.242 55.8901 97.7503L55.1555 99.6105C63.871 103.052 72.1166 107.514 77.9723 111.906L79.1724 110.306ZM55.8927 97.7513C46.3417 93.9487 36.3018 91.3323 28.3316 91.3323V93.3323C35.9378 93.3323 45.7061 95.8484 55.1529 99.6095L55.8927 97.7513ZM28.3316 91.3323C8.28611 91.3323 -8.28498 97.2442 -19.6799 108.318L-18.286 109.753C-7.35172 99.1261 8.67065 93.3323 28.3316 93.3323V91.3323ZM-19.6811 108.32C-30.7605 119.124 -37 134.89 -37 154.823H-35C-35 135.316 -28.9044 120.107 -18.2848 109.751L-19.6811 108.32ZM-37 154.823V166.529H-35V154.823H-37ZM-37 166.529C-37 176.978 -35.5008 186.193 -32.5263 194.248L-30.6501 193.555C-33.5279 185.763 -35 176.789 -35 166.529H-37ZM-32.5261 194.249C-29.5932 202.177 -25.1435 208.969 -19.2258 214.658L-17.8398 213.216C-23.5369 207.739 -27.8207 201.204 -30.6503 193.555L-32.5261 194.249ZM-19.2259 214.657C-13.2968 220.359 -7.01798 224.674 0.469681 227.523L1.18076 225.653C-6.00764 222.919 -12.064 218.77 -17.8396 213.216L-19.2259 214.657ZM0.473454 227.524C8.04334 230.369 17.0378 231.82 28.2866 231.82V229.82C17.2061 229.82 8.46324 228.39 1.17699 225.652L0.473454 227.524ZM28.2866 231.82C37.4836 231.82 46.8027 230.363 55.6547 227.912L55.1209 225.984C46.4156 228.395 37.277 229.82 28.2866 229.82V231.82ZM271.253 158.274C267.958 155.245 266.31 152.889 266.31 149.915H264.31C264.31 153.786 266.533 156.652 269.9 159.746L271.253 158.274ZM266.31 149.915C266.31 148.558 266.753 147.4 267.529 146.588C268.297 145.785 269.465 145.243 271.072 145.243V143.243C268.987 143.243 267.274 143.961 266.084 145.206C264.901 146.443 264.31 148.122 264.31 149.915H266.31ZM271.072 145.243C272.641 145.243 273.557 145.797 274.122 146.578C274.725 147.414 275.024 148.648 275.024 150.141H277.024C277.024 148.437 276.692 146.721 275.743 145.407C274.754 144.038 273.195 143.243 271.072 143.243V145.243ZM275.024 150.141C275.024 151.268 274.851 152.518 274.167 153.847C273.481 155.18 272.245 156.66 270.013 158.184L271.141 159.836C273.591 158.163 275.078 156.447 275.945 154.763C276.814 153.075 277.024 151.49 277.024 150.141H275.024ZM283.753 182.507C279.32 186.728 274.834 187.139 272.738 187.139V189.139C275.143 189.139 280.201 188.65 285.132 183.956L283.753 182.507ZM272.738 187.139C269.497 187.139 266.741 186.293 264.647 184.037L263.181 185.398C265.769 188.185 269.135 189.139 272.738 189.139V187.139ZM264.642 184.032C262.66 181.928 262.078 179.637 262.078 176.974H260.078C260.078 179.983 260.756 182.824 263.186 185.403L264.642 184.032ZM262.078 176.974C262.078 173.841 262.739 171.733 264.392 169.189L262.715 168.1C260.857 170.958 260.078 173.443 260.078 176.974H262.078ZM264.396 169.184C265.473 167.503 266.517 166.303 267.962 165.271L266.799 163.644C265.093 164.863 263.885 166.274 262.712 168.105L264.396 169.184ZM266.64 165.13L283.702 183.904L285.182 182.559L268.12 163.785L266.64 165.13ZM289.429 190.082C290.65 191.391 293.135 194.092 296.778 194.092V192.092C294.118 192.092 292.19 190.11 290.891 188.717L289.429 190.082ZM296.778 194.092C299.546 194.092 301.735 192.424 303.058 191.409L301.841 189.822C300.464 190.878 298.781 192.092 296.778 192.092V194.092ZM303.075 191.396C304.481 190.271 305.515 189.235 306.631 187.934L305.112 186.633C304.066 187.853 303.12 188.798 301.825 189.834L303.075 191.396ZM306.557 186.556L304.982 185.07L303.61 186.525L305.185 188.011L306.557 186.556ZM303.499 185.194C302.549 186.447 301.036 187.139 299.884 187.139V189.139C301.703 189.139 303.791 188.12 305.093 186.402L303.499 185.194ZM299.884 187.139C298.976 187.139 298.099 186.79 297.266 186.233C296.432 185.675 295.697 184.946 295.089 184.272L293.604 185.613C294.256 186.335 295.12 187.204 296.154 187.895C297.19 188.588 298.451 189.139 299.884 189.139V187.139ZM295.089 184.272L291.307 180.085L289.823 181.426L293.604 185.613L295.089 184.272ZM291.346 181.38C294.857 176.991 296.389 173.321 298.092 169.601L296.273 168.769C294.555 172.522 293.116 175.965 289.784 180.131L291.346 181.38ZM298.095 169.594C299.105 167.344 300.687 163.896 305.105 163.701L305.017 161.703C299.261 161.957 297.241 166.614 296.27 168.775L298.095 169.594ZM306.061 162.702V160.586H304.061V162.702H306.061ZM305.061 159.586H287.144V161.586H305.061V159.586ZM286.144 160.586V162.702H288.144V160.586H286.144ZM286.971 163.687L289.537 164.137L289.882 162.167L287.316 161.717L286.971 163.687ZM289.537 164.137C290.844 164.366 291.444 165.05 291.762 165.738C292.106 166.483 292.131 167.281 292.131 167.654H294.131C294.131 167.217 294.111 166.056 293.578 164.9C293.017 163.685 291.907 162.523 289.883 162.167L289.537 164.137ZM292.131 167.654C292.131 169.324 291.582 171.223 290.732 173.065C289.886 174.898 288.774 176.602 287.725 177.865L289.263 179.143C290.42 177.75 291.627 175.898 292.548 173.904C293.464 171.919 294.131 169.721 294.131 167.654H292.131ZM289.227 177.824L273.156 160.491L271.689 161.851L287.761 179.184L289.227 177.824ZM272.961 162.014C275.131 160.628 277.499 158.729 279.057 157.029L277.583 155.678C276.169 157.22 273.946 159.012 271.884 160.328L272.961 162.014ZM279.053 157.033C280.864 155.08 282.291 152.642 282.291 149.6H280.291C280.291 151.961 279.197 153.936 277.586 155.674L279.053 157.033ZM282.291 149.6C282.291 146.818 281.026 144.373 279.13 142.836L277.87 144.389C279.305 145.553 280.291 147.43 280.291 149.6H282.291ZM279.144 142.847C277.193 141.204 274.32 140.406 271.117 140.406V142.406C274.036 142.406 276.386 143.139 277.856 144.377L279.144 142.847ZM271.117 140.406C267.309 140.406 264.804 141.715 263.305 142.864L264.522 144.451C265.725 143.529 267.812 142.406 271.117 142.406V140.406ZM263.289 142.876C260.007 145.503 259.583 149.041 259.583 151.401H261.583C261.583 149.259 261.969 146.494 264.539 144.438L263.289 142.876ZM259.583 151.401C259.583 154.595 260.589 158.385 264.746 163.01L266.233 161.673C262.377 157.383 261.583 154.06 261.583 151.401H259.583ZM264.98 161.481C262.484 162.96 259.776 165.009 257.703 167.458L259.23 168.75C261.119 166.518 263.633 164.604 265.999 163.202L264.98 161.481ZM257.706 167.455C254.974 170.658 253.325 174.077 253.325 178.774H255.325C255.325 174.648 256.737 171.674 259.228 168.753L257.706 167.455ZM253.325 178.774C253.325 184.357 255.588 188.108 258.699 190.587L259.945 189.023C257.294 186.91 255.325 183.727 255.325 178.774H253.325ZM258.693 190.582C260.978 192.43 264.529 194.137 269.631 194.137V192.137C265.01 192.137 261.898 190.602 259.951 189.027L258.693 190.582ZM269.631 194.137C273.484 194.137 280.212 193.168 286.971 185.988L285.515 184.617C279.219 191.304 273.072 192.137 269.631 192.137V194.137ZM285.509 185.981L289.335 190.123L290.804 188.766L286.978 184.624L285.509 185.981ZM290.517 190.339L290.607 190.294L289.712 188.505L289.622 188.551L290.517 190.339ZM503.773 102.502C500.348 78.3885 496.063 52.137 485.241 14.3491L483.319 14.8997C494.106 52.5686 498.375 78.7226 501.793 102.783L503.773 102.502ZM485.241 14.3489C484.096 10.3505 482.184 7.08172 479.411 4.58922C476.64 2.09885 473.066 0.435 468.676 -0.447888L468.281 1.51287C472.399 2.34081 475.623 3.87353 478.074 6.07672C480.523 8.27777 482.258 11.1995 483.319 14.8998L485.241 14.3489ZM468.673 -0.448387C462.704 -1.63282 454.418 0.0808799 445.932 3.7569L446.727 5.59211C455.078 1.97457 462.908 0.446696 468.284 1.51337L468.673 -0.448387ZM445.927 3.75912L438.454 7.0457L439.259 8.87647L446.732 5.58989L445.927 3.75912ZM437.889 8.21311C451.773 61.5289 457.427 89.756 459.688 118.131C461.952 146.546 460.815 175.097 461.086 229.159L463.086 229.149C462.816 175.203 463.953 146.486 461.681 117.972C459.406 89.4159 453.716 61.0504 439.824 7.70907L437.889 8.21311ZM462.086 230.154H504.268V228.154H462.086V230.154ZM505.268 229.154V144.873H503.268V229.154H505.268ZM504.41 145.863L550.869 139.2L550.586 137.22L504.126 143.883L504.41 145.863ZM549.727 138.21V229.154H551.727V138.21H549.727ZM550.727 230.154H593V228.154H550.727V230.154ZM594 229.154V128.53H592V229.154H594ZM594 128.53C594 114.034 590.095 104.118 582.399 98.4707C574.742 92.8524 563.603 91.6676 549.621 93.9567L549.944 95.9304C563.737 93.6723 574.208 94.9412 581.216 100.083C588.184 105.196 592 114.347 592 128.53H594ZM549.62 93.9567L502.621 101.655L502.944 103.629L549.944 95.9304L549.62 93.9567ZM419.361 227.911C427.532 225.641 435.342 222.509 442.248 218.874L441.317 217.104C434.537 220.672 426.86 223.752 418.825 225.984L419.361 227.911ZM442.736 217.688L431.256 181.265L429.349 181.867L440.829 218.289L442.736 217.688ZM429.905 180.648C424.225 183.108 415.983 186.155 408.285 188.348L408.833 190.271C416.621 188.052 424.945 184.976 430.7 182.484L429.905 180.648ZM408.286 188.348C404.103 189.533 400.018 190.478 396.43 190.993C392.817 191.512 389.807 191.579 387.721 191.083L387.259 193.029C389.72 193.614 393.035 193.501 396.715 192.973C400.42 192.441 404.596 191.472 408.831 190.272L408.286 188.348ZM387.718 191.082C385.681 190.606 383.826 189.914 382.102 189.01L381.173 190.78C383.051 191.767 385.067 192.516 387.262 193.03L387.718 191.082ZM382.094 189.005C380.34 188.107 378.744 186.945 377.214 185.59L375.887 187.087C377.509 188.523 379.243 189.792 381.182 190.785L382.094 189.005ZM377.224 185.599C374.837 183.425 373.076 180.687 371.863 177.352L369.983 178.036C371.292 181.634 373.221 184.659 375.877 187.078L377.224 185.599ZM371.866 177.362C370.785 174.29 370.212 170.713 370.212 166.664H368.212C368.212 170.898 368.811 174.705 369.98 178.026L371.866 177.362ZM370.212 166.664V154.958H368.212V166.664H370.212ZM370.212 154.958C370.212 151.373 370.78 148.166 371.9 145.28L370.036 144.556C368.815 147.702 368.212 151.159 368.212 154.958H370.212ZM371.901 145.278C373.063 142.266 374.776 139.742 377.087 137.645L375.743 136.163C373.193 138.478 371.305 141.267 370.035 144.558L371.901 145.278ZM377.093 137.639C381.513 133.563 387.333 131.466 394.648 131.466V129.466C386.927 129.466 380.592 131.691 375.737 136.169L377.093 137.639ZM394.648 131.466C398.196 131.466 403.627 133.116 409.395 135.36C415.116 137.586 421.008 140.33 425.421 142.402L426.271 140.591C421.861 138.521 415.912 135.75 410.12 133.496C404.375 131.26 398.618 129.466 394.648 129.466V131.466ZM426.725 141.973L443.112 111.763L441.354 110.81L424.967 141.019L426.725 141.973ZM442.833 110.487C436.803 105.964 428.392 101.422 419.55 97.9304L418.816 99.7906C427.531 103.232 435.777 107.694 441.633 112.087L442.833 110.487ZM419.553 97.9314C410.002 94.1288 399.962 91.5124 391.992 91.5124V93.5124C399.598 93.5124 409.366 96.0285 418.813 99.7895L419.553 97.9314ZM391.992 91.5124C371.946 91.5124 355.375 97.4243 343.98 108.498L345.374 109.933C356.309 99.3062 372.331 93.5124 391.992 93.5124V91.5124ZM343.979 108.5C332.9 119.304 326.66 135.07 326.66 155.003H328.66C328.66 135.497 334.756 120.287 345.375 109.931L343.979 108.5ZM326.66 155.003V166.709H328.66V155.003H326.66ZM326.66 166.709C326.66 177.158 328.159 186.374 331.134 194.428L333.01 193.736C330.132 185.943 328.66 176.969 328.66 166.709H326.66ZM331.134 194.429C334.067 202.357 338.517 209.149 344.434 214.838L345.821 213.396C340.123 207.919 335.84 201.384 333.01 193.735L331.134 194.429ZM344.434 214.838C350.364 220.539 356.642 224.854 364.13 227.703L364.841 225.833C357.653 223.099 351.596 218.95 345.821 213.396L344.434 214.838ZM364.136 227.705C371.749 230.548 380.697 232 391.992 232V230C380.867 230 372.168 228.57 364.835 225.831L364.136 227.705ZM391.992 232C401.189 232 410.508 230.543 419.36 228.092L418.826 226.164C410.121 228.575 400.982 230 391.992 230V232Z" fill="#E4E4E4" mask="url(#path-1-inside-1_699_31059)"/>
</svg>
