<svg width="8" height="8" viewBox="0 0 8 8" fill="none" xmlns="http://www.w3.org/2000/svg">
<path d="M2.64639 0.818268C2.55266 0.912032 2.5 1.03919 2.5 1.17177C2.5 1.30435 2.55266 1.4315 2.64639 1.52527L5.12139 4.00027L2.64639 6.47527C2.55531 6.56957 2.50492 6.69587 2.50606 6.82697C2.5072 6.95807 2.55978 7.08347 2.65248 7.17618C2.74519 7.26888 2.87059 7.32147 3.00169 7.32261C3.13279 7.32374 3.25909 7.27335 3.35339 7.18227L6.18189 4.35377C6.27563 4.26 6.32829 4.13285 6.32829 4.00027C6.32829 3.86769 6.27563 3.74053 6.18189 3.64677L3.35339 0.818268C3.25963 0.724533 3.13248 0.671875 2.99989 0.671875C2.86731 0.671875 2.74016 0.724533 2.64639 0.818268Z" fill="black" fill-opacity="0.4"/>
</svg>
