<svg width="8" height="7" viewBox="0 0 8 7" fill="none" xmlns="http://www.w3.org/2000/svg">
<path d="M6.42835 1.02076C6.54361 0.911038 6.69698 0.850376 6.85611 0.85158C7.01524 0.852784 7.16768 0.91576 7.28127 1.02722C7.39485 1.13868 7.46069 1.2899 7.46489 1.44898C7.4691 1.60806 7.41134 1.76255 7.30381 1.87986L4.03926 5.96258C3.98313 6.02305 3.91538 6.07157 3.84006 6.10525C3.76475 6.13893 3.68341 6.15707 3.60092 6.1586C3.51843 6.16013 3.43648 6.14501 3.35997 6.11414C3.28346 6.08327 3.21396 6.03729 3.15563 5.97895L0.990717 3.81404C0.930428 3.75786 0.882072 3.69011 0.848533 3.61484C0.814994 3.53957 0.796959 3.45831 0.795506 3.37592C0.794052 3.29353 0.809209 3.21168 0.840071 3.13528C0.870934 3.05887 0.91687 2.98946 0.97514 2.93119C1.03341 2.87292 1.10282 2.82698 1.17923 2.79612C1.25564 2.76526 1.33748 2.7501 1.41987 2.75155C1.50227 2.75301 1.58352 2.77104 1.65879 2.80458C1.73407 2.83812 1.80181 2.88648 1.85799 2.94676L3.57126 4.65922L6.41281 1.03877C6.41792 1.03247 6.42339 1.02646 6.42917 1.02076H6.42835Z" fill="white"/>
</svg>
