<svg width="38" height="38" viewBox="0 0 38 38" fill="none" xmlns="http://www.w3.org/2000/svg">
<path d="M19.0007 27.3423C18.6895 27.3423 18.3979 27.2941 18.1257 27.1977C17.8534 27.1012 17.6007 26.9355 17.3673 26.7007L8.96732 18.3007C8.53954 17.8729 8.32565 17.3284 8.32565 16.6673C8.32565 16.0062 8.53954 15.4618 8.96732 15.034C9.3951 14.6062 9.94966 14.383 10.631 14.3643C11.3123 14.3457 11.8661 14.5494 12.2923 14.9757L16.6673 19.3507V2.66733C16.6673 2.00621 16.8913 1.45166 17.3393 1.00366C17.7873 0.55566 18.3411 0.332437 19.0007 0.333992C19.6618 0.333992 20.2163 0.557993 20.6643 1.00599C21.1123 1.45399 21.3355 2.00777 21.334 2.66733V19.3507L25.709 14.9757C26.1368 14.5479 26.6913 14.3433 27.3727 14.362C28.054 14.3807 28.6078 14.6047 29.034 15.034C29.4618 15.4618 29.6757 16.0062 29.6757 16.6673C29.6757 17.3284 29.4618 17.8729 29.034 18.3007L20.634 26.7007C20.4007 26.934 20.1479 27.0997 19.8757 27.1977C19.6034 27.2957 19.3118 27.3439 19.0007 27.3423ZM5.00065 37.6673C3.71732 37.6673 2.61832 37.21 1.70365 36.2953C0.788988 35.3807 0.332433 34.2824 0.333988 33.0007V28.334C0.333988 27.6729 0.557989 27.1183 1.00599 26.6703C1.45399 26.2223 2.00777 25.9991 2.66732 26.0007C3.32843 26.0007 3.88299 26.2247 4.33099 26.6727C4.77899 27.1207 5.00221 27.6744 5.00065 28.334V33.0007H33.0007V28.334C33.0007 27.6729 33.2247 27.1183 33.6727 26.6703C34.1207 26.2223 34.6744 25.9991 35.334 26.0007C35.9951 26.0007 36.5497 26.2247 36.9977 26.6727C37.4457 27.1207 37.6689 27.6744 37.6673 28.334V33.0007C37.6673 34.284 37.21 35.383 36.2953 36.2977C35.3807 37.2123 34.2824 37.6689 33.0007 37.6673H5.00065Z" fill="white"/>
</svg>
