<svg width="31" height="31" viewBox="0 0 31 31" fill="none" xmlns="http://www.w3.org/2000/svg">
<path d="M15.5 2.90625C13.0092 2.90625 10.5743 3.64486 8.50329 5.02868C6.43226 6.4125 4.81809 8.37937 3.8649 10.6806C2.91171 12.9818 2.66231 15.514 3.14824 17.9569C3.63417 20.3999 4.83361 22.6439 6.59488 24.4051C8.35615 26.1664 10.6001 27.3658 13.0431 27.8518C15.486 28.3377 18.0182 28.0883 20.3194 27.1351C22.6206 26.1819 24.5875 24.5677 25.9713 22.4967C27.3551 20.4257 28.0938 17.9908 28.0938 15.5C28.0902 12.161 26.7623 8.95979 24.4012 6.59877C22.0402 4.23775 18.839 2.90978 15.5 2.90625ZM15.5 26.1562C13.3924 26.1562 11.3321 25.5313 9.57971 24.3603C7.8273 23.1894 6.46146 21.5251 5.65491 19.578C4.84837 17.6308 4.63734 15.4882 5.04851 13.4211C5.45969 11.354 6.4746 9.4552 7.9649 7.96489C9.4552 6.47459 11.354 5.45968 13.4211 5.04851C15.4882 4.63733 17.6308 4.84836 19.578 5.65491C21.5252 6.46146 23.1894 7.82729 24.3604 9.5797C25.5313 11.3321 26.1563 13.3924 26.1563 15.5C26.1531 18.3252 25.0293 21.0338 23.0316 23.0316C21.0338 25.0293 18.3252 26.153 15.5 26.1562ZM14.5313 16.4688V9.6875C14.5313 9.43057 14.6333 9.18417 14.815 9.00249C14.9967 8.82081 15.2431 8.71875 15.5 8.71875C15.7569 8.71875 16.0033 8.82081 16.185 9.00249C16.3667 9.18417 16.4688 9.43057 16.4688 9.6875V16.4688C16.4688 16.7257 16.3667 16.9721 16.185 17.1538C16.0033 17.3354 15.7569 17.4375 15.5 17.4375C15.2431 17.4375 14.9967 17.3354 14.815 17.1538C14.6333 16.9721 14.5313 16.7257 14.5313 16.4688ZM16.9531 20.8281C16.9531 21.1155 16.8679 21.3965 16.7082 21.6354C16.5486 21.8744 16.3216 22.0607 16.0561 22.1706C15.7906 22.2806 15.4984 22.3094 15.2165 22.2533C14.9346 22.1973 14.6757 22.0589 14.4725 21.8556C14.2693 21.6524 14.1309 21.3935 14.0748 21.1116C14.0187 20.8297 14.0475 20.5376 14.1575 20.272C14.2675 20.0065 14.4537 19.7796 14.6927 19.6199C14.9317 19.4602 15.2126 19.375 15.5 19.375C15.8854 19.375 16.255 19.5281 16.5275 19.8006C16.8 20.0731 16.9531 20.4427 16.9531 20.8281Z" fill="#F0BA30"/>
</svg>
