<svg width="457" height="39" viewBox="0 0 457 39" fill="none" xmlns="http://www.w3.org/2000/svg">
<path d="M455.55 19.0076C455.55 19.3877 455.319 19.8746 454.603 20.4621C453.895 21.043 452.803 21.6442 451.31 22.2526C448.328 23.4668 443.894 24.6511 438.135 25.7857C426.628 28.053 409.954 30.0986 389.323 31.8178C348.069 35.2556 291.065 37.3828 228.091 37.3828C165.117 37.3828 108.113 35.2556 66.8588 31.8178C46.2286 30.0986 29.5543 28.053 18.0468 25.7857C12.288 24.6511 7.85409 23.4668 4.87251 22.2526C3.37866 21.6442 2.28668 21.043 1.57876 20.4621C0.862762 19.8746 0.632386 19.3877 0.632386 19.0076C0.632386 18.6275 0.862762 18.1406 1.57876 17.553C2.28668 16.9721 3.37866 16.3709 4.87251 15.7626C7.85409 14.5484 12.288 13.364 18.0468 12.2294C29.5543 9.96219 46.2286 7.91659 66.8588 6.1974C108.113 2.75957 165.117 0.632386 228.091 0.632386C291.065 0.632386 348.069 2.75957 389.323 6.1974C409.954 7.91659 426.628 9.96219 438.135 12.2294C443.894 13.364 448.328 14.5484 451.31 15.7626C452.803 16.3709 453.895 16.9721 454.603 17.553C455.319 18.1406 455.55 18.6275 455.55 19.0076Z" stroke="url(#paint0_linear_493_46032)" stroke-width="1.26477"/>
<defs>
<linearGradient id="paint0_linear_493_46032" x1="228.091" y1="55.6651" x2="228.091" y2="6.10958" gradientUnits="userSpaceOnUse">
<stop stop-color="#BBBBBB"/>
<stop offset="1" stop-color="#767676" stop-opacity="0"/>
</linearGradient>
</defs>
</svg>
