<svg width="187" height="98" viewBox="0 0 187 98" fill="none" xmlns="http://www.w3.org/2000/svg">
<path d="M177.277 82.3475V82.9561C177.501 82.9826 177.725 83.0884 177.91 83.2075C178.081 83.3663 178.134 83.5118 178.187 83.6574L181.71 92.734L181.287 94.0042C181.116 94.4805 180.707 95.2215 180.39 95.6713C180.113 96.0286 179.81 96.2535 179.256 96.2535C178.926 96.2535 178.451 96.1212 178.068 95.6713C177.567 95.9227 177.29 96.4255 177.29 96.8621C177.29 97.5237 177.791 98 178.622 98C179.678 98 180.337 97.4178 180.707 96.9415C181.314 96.1873 181.683 95.3538 182.013 94.4408L185.456 84.954C185.588 84.5306 185.813 83.9881 186.063 83.6706C186.34 83.2869 186.644 83.0884 187 82.9693V82.3607H183.53V82.9693L184.058 83.0752C184.454 83.1281 184.718 83.4854 184.718 83.9088C184.718 84.2395 184.586 84.5439 184.493 84.9011L182.712 90.3391H182.686L180.417 84.5439C180.311 84.266 180.245 83.9352 180.245 83.7103C180.245 83.181 180.667 83.1017 180.852 83.0752L181.538 82.9693V82.3607H177.316L177.277 82.3475ZM169.954 82.0432C169.453 82.2416 168.516 82.5724 167.118 82.7576V83.3927L168.147 83.6441C168.147 83.6441 168.543 83.75 168.543 84.1205V91.3976C168.543 91.6755 168.398 91.8342 168.147 91.9004L167.316 92.0989V92.734H171.762V92.0989L170.733 91.9004C170.482 91.8475 170.337 91.649 170.337 91.3976V86.0125C170.337 85.3113 170.482 84.7026 170.944 84.0411C171.168 83.7367 171.524 83.3133 172.052 83.3133C172.606 83.3133 172.804 83.8161 172.738 84.2792C173.517 84.61 174.269 84.1205 174.269 83.2869C174.269 82.5989 173.82 82.0432 172.91 82.0432C172.329 82.0432 171.696 82.2416 171.102 82.7576C170.72 83.0884 170.377 83.5383 170.152 84.0146V82.0432H169.981H169.954ZM158.635 92.1915C157.579 92.1915 156.972 91.7549 156.497 90.9213C156.049 90.1407 155.838 89.0822 155.838 87.5341C155.838 85.9861 156.036 84.954 156.497 84.1469C156.972 83.3134 157.579 82.89 158.635 82.89C159.69 82.89 160.271 83.3134 160.746 84.1469C161.194 84.954 161.405 85.9993 161.405 87.5341C161.405 89.0689 161.207 90.1407 160.746 90.9213C160.271 91.7549 159.664 92.1915 158.635 92.1915ZM158.635 82.0432C156.999 82.0432 155.97 82.7312 155.363 83.3133C154.466 84.2263 153.912 85.6685 153.912 87.5341C153.912 89.3997 154.466 90.8684 155.363 91.7549C155.97 92.3635 156.999 93.0251 158.635 93.0251C160.271 93.0251 161.3 92.3635 161.88 91.7549C162.791 90.8684 163.345 89.3997 163.345 87.5341C163.345 85.6685 162.791 84.2263 161.88 83.3133C161.3 82.7312 160.244 82.0432 158.635 82.0432ZM147.249 79.2381C146.972 79.9262 146.563 80.6274 146.141 81.1567C145.745 81.6594 145.164 82.1887 144.452 82.6253V83.2604H145.679V90.7493C145.679 91.4506 145.785 91.993 146.009 92.3635C146.339 92.8663 146.814 93.0251 147.262 93.0251C147.513 93.0251 148.146 92.9986 149.07 92.4429C149.465 92.218 150.006 91.8343 150.429 91.477L150.02 90.8684C149.742 91.1198 148.859 91.7813 148.238 91.7813C147.46 91.7813 147.46 90.9478 147.46 90.7493V83.2604L150.231 83.4589V82.3475H147.46V81.8711C147.46 81.4213 147.566 80.7068 147.592 80.4289C147.698 79.9526 147.79 79.516 147.869 79.2381H147.236H147.249ZM139.65 84.7688C139.848 84.8746 140.045 84.9276 140.283 84.9276C140.837 84.9276 141.312 84.6232 141.312 84.0146C141.312 83.406 140.956 82.8503 140.336 82.493C139.729 82.1358 139.003 82.0299 138.344 82.0299C136.906 82.0299 135.85 82.4401 134.953 83.525C134.122 84.5835 133.7 86.2375 133.7 87.8517C133.7 89.1616 134.003 90.6302 134.755 91.6226C135.336 92.3767 136.285 93.0118 137.565 93.0118C138.423 93.0118 139.254 92.6811 139.9 92.4032C140.481 92.1253 140.956 91.821 141.431 91.4638L141.075 90.8551C140.468 91.2521 139.465 91.7681 138.528 91.7681C137.75 91.7681 136.892 91.4902 136.259 90.4582C135.929 89.9025 135.626 88.9366 135.626 87.296C135.626 85.47 135.995 84.5439 136.259 84.0808C136.866 82.9958 137.697 82.8635 138.146 82.8635C138.594 82.8635 138.977 83.062 139.201 83.2869C139.452 83.5383 139.623 83.9881 139.623 84.4512V84.7556L139.65 84.7688ZM126.8 89.2145C126.8 89.7173 126.694 90.4053 126.114 91.0933C125.639 91.5961 125.058 91.8475 124.504 91.8475C124.029 91.8475 123.62 91.649 123.369 91.1595C123.198 90.8022 123.092 90.3524 123.092 89.9157C123.092 89.36 123.198 88.7778 123.752 88.3544C124.121 88.0501 124.807 87.8252 125.361 87.6664L126.8 87.3092V89.2012V89.2145ZM126.8 86.4888L124.966 86.9122C123.91 87.1372 122.974 87.3886 122.301 87.9443C121.575 88.5794 121.351 89.3336 121.351 90.22C121.351 90.9213 121.509 91.7681 122.182 92.39C122.657 92.8134 123.29 92.9986 123.818 92.9986C124.504 92.9986 125.23 92.7207 125.731 92.4429C126.179 92.165 126.615 91.8078 126.945 91.4506C127.024 91.8078 127.169 92.1518 127.301 92.4164C127.525 92.7737 127.829 92.9986 128.304 92.9986C128.858 92.9986 129.491 92.6414 129.834 92.4164V91.8078C129.61 91.9666 129.333 92.0856 129.108 92.0856C128.937 92.0856 128.858 92.0063 128.752 91.8343C128.594 91.5564 128.581 91.305 128.581 91.0536V84.3322C128.581 83.7764 128.501 83.1149 127.881 82.5856C127.275 82.0828 126.377 82.0299 125.916 82.0299C125.005 82.0299 123.976 82.2549 123.224 82.6915C122.419 83.1413 121.694 83.9749 121.694 84.7159C121.694 85.3245 122.169 85.351 122.393 85.351C122.762 85.351 123.119 85.2186 123.58 85.0202C123.409 84.1072 123.805 83.6044 124.108 83.353C124.478 83.0752 125.084 82.8767 125.612 82.8767C125.836 82.8767 126.311 82.9296 126.588 83.3001C126.76 83.578 126.813 84.0278 126.813 84.3322V86.4888H126.8ZM112.182 82.3475V83.4589L113.844 83.2604V91.3579C113.844 91.7549 113.461 91.8343 113.448 91.8607L112.419 92.1121V92.7472H117.498V92.1121L116.047 91.8607C115.796 91.8343 115.638 91.6093 115.638 91.3579V83.2604L118.105 83.4589V82.3475H115.638V79.344C115.638 78.9338 115.665 78.4046 116.021 77.9547C116.245 77.6504 116.628 77.3725 117.235 77.3725C117.538 77.3725 117.841 77.4784 118.092 77.7562C118.198 77.915 118.343 78.1399 118.343 78.4443C118.844 78.4178 119.57 78.2193 119.57 77.5842C119.57 77.3064 119.451 76.5522 118.039 76.5522C116.984 76.5522 116.205 76.8565 115.48 77.4651C114.754 78.1002 113.87 79.2117 113.87 81.0111V82.3739H112.208L112.182 82.3475ZM90.9009 86.3433C90.9273 85.5891 91.1252 84.6497 91.4287 84.0411C91.9036 83.1016 92.6161 82.8767 93.1834 82.8767C94.0145 82.8767 94.4103 83.3795 94.6082 83.7632C94.8325 84.2263 94.938 84.8482 94.938 85.4833C94.938 85.6817 94.9381 85.9596 94.7138 86.1448C94.5423 86.3168 94.2124 86.3433 93.9618 86.3433H90.9009ZM96.4025 90.8684C95.7428 91.2653 94.6874 91.7813 93.7111 91.7813C92.6292 91.7813 91.9036 91.2521 91.4682 90.4714C90.9405 89.585 90.769 88.1692 90.835 87.2827H96.2178L96.7191 86.727V86.2242C96.7191 85.4171 96.5476 84.2263 96.0595 83.4457C95.2547 82.1755 94.0673 82.0564 93.2625 82.0564C92.0356 82.0564 90.8746 82.3872 89.9642 83.6706C89.1331 84.8349 88.856 86.6609 88.856 87.9178C88.856 90.1936 89.7136 91.3844 89.9115 91.6358C90.492 92.39 91.4419 93.0251 92.7084 93.0251C93.2361 93.0251 94.0145 92.9192 95.1491 92.4164C95.7296 92.1386 96.231 91.8343 96.7059 91.477L96.3761 90.8684H96.4025ZM81.3095 82.0432C80.8082 82.2416 79.8715 82.5724 78.473 82.7576V83.3927L79.502 83.6441C79.502 83.6441 79.911 83.75 79.911 84.1205V91.3976C79.911 91.6755 79.7395 91.8342 79.502 91.9004L78.6709 92.0989V92.734H83.117V92.0989L82.0879 91.9004C81.8372 91.8475 81.6921 91.649 81.6921 91.3976V86.0125C81.6921 85.3113 81.824 84.7026 82.299 84.0411C82.5233 83.7367 82.8795 83.3133 83.4072 83.3133C83.9349 83.3133 84.1592 83.8161 84.0801 84.2792C84.8321 84.61 85.6105 84.1205 85.6105 83.2869C85.6105 82.5989 85.1619 82.0432 84.2516 82.0432C83.6711 82.0432 83.0378 82.2416 82.4441 82.7576C82.0747 83.0884 81.7185 83.5383 81.4678 84.0146V82.0432H81.3227H81.3095ZM67.2456 82.0432C66.7442 82.2416 65.8075 82.5724 64.4091 82.7576V83.3927L65.4381 83.6441C65.4381 83.6441 65.8471 83.75 65.8471 84.1205V89.7834C65.8471 90.6964 66.045 91.477 66.4012 91.9533C66.7311 92.4032 67.4039 93.0118 68.7892 93.0118C69.594 93.0118 70.2272 92.7869 70.8737 92.4297C71.4806 92.0989 71.9292 91.7019 72.1271 91.4902V93.0118H72.2854C72.7867 92.8398 73.7102 92.5091 75.1483 92.3106V91.702L74.1192 91.4506C74.1192 91.4506 73.697 91.3447 73.697 90.9478V82.0432H73.3408C72.8395 82.2416 71.9028 82.5724 70.4779 82.7576V83.3927L71.507 83.6441C71.507 83.6441 71.9292 83.75 71.9292 84.1205V89.1483C71.9292 90.1804 71.4542 90.8948 71.0716 91.2653C70.623 91.7284 69.8842 92.0989 69.185 92.0989C68.5517 92.0989 68.2087 91.7946 67.9976 91.5696C67.615 91.0933 67.615 90.4582 67.615 90.0216V84.5835C67.615 83.3001 67.7469 82.493 67.8129 82.0299H67.2324L67.2456 82.0432ZM58.1951 79.2381C57.8916 79.9262 57.509 80.6274 57.0868 81.1567C56.6647 81.6594 56.1106 82.1887 55.3717 82.6253V83.2604H56.5987V90.7493C56.5987 91.4506 56.7174 91.993 56.9549 92.3635C57.2847 92.8663 57.7597 93.0251 58.2083 93.0251C58.4589 93.0251 59.0658 92.9986 59.9893 92.4429C60.4115 92.218 60.9261 91.8343 61.3482 91.477L60.9524 90.8684C60.6754 91.1198 59.8178 91.7813 59.1714 91.7813C58.393 91.7813 58.393 90.9478 58.393 90.7493V83.2604L61.1635 83.4589V82.3475H58.393V81.8711C58.393 81.4213 58.4985 80.7068 58.5513 80.4289C58.6304 79.9526 58.7228 79.516 58.8283 79.2381H58.1951ZM48.6828 78.8015C48.6828 79.4895 49.2369 80.0452 49.9098 80.0452C50.5826 80.0452 51.1367 79.4895 51.1367 78.8015C51.1367 78.1135 50.5826 77.5578 49.9098 77.5578C49.2369 77.5578 48.6828 78.1135 48.6828 78.8015ZM50.4375 82.0432C49.9625 82.2416 49.0258 82.5724 47.601 82.7576V83.3927L48.63 83.6441C48.63 83.6441 49.0522 83.75 49.0522 84.1205V91.3976C49.0522 91.6755 48.8807 91.8342 48.63 91.9004L47.7989 92.0989V92.734H52.0471V92.0989L51.2423 91.9004C50.9916 91.821 50.8201 91.6755 50.8201 91.3976V82.0432H50.4375ZM36.4791 82.0432C35.9778 82.2416 35.0543 82.5724 33.6162 82.7576V83.3927L34.6453 83.6441C34.6453 83.6441 35.0674 83.75 35.0674 84.1205V91.3976C35.0674 91.6755 34.8959 91.8342 34.6453 91.9004L33.8405 92.0989V92.734H38.0887V92.0989L37.2575 91.9004C37.0068 91.821 36.8617 91.6755 36.8617 91.3976V85.6024C36.8617 84.6894 37.2575 84.0543 37.6665 83.6838C38.1678 83.181 38.8275 82.9561 39.4212 82.9561C40.0149 82.9561 40.4239 83.2075 40.6745 83.5383C41.0308 84.0675 41.044 84.782 41.044 85.4171V91.4109C41.044 91.6887 40.8988 91.8475 40.6482 91.9136L39.817 92.1121V92.7472H44.0652V92.1121L43.234 91.9136C42.9833 91.8343 42.8382 91.6887 42.8382 91.4109V85.4171C42.8382 84.7159 42.7855 83.5383 42.0071 82.8106C41.5057 82.3078 40.7009 82.0564 39.8434 82.0564C39.065 82.0564 38.4317 82.2549 37.8644 82.6121C37.4422 82.89 36.9541 83.3001 36.6374 83.6044V82.0564H36.4791V82.0432ZM26.0169 82.0432C25.5156 82.2416 24.5789 82.5724 23.154 82.7576V83.3927L24.1831 83.6441C24.1831 83.6441 24.6185 83.75 24.6185 84.1205V91.3976C24.6185 91.6755 24.4469 91.8342 24.1831 91.9004L23.3783 92.0989V92.734H27.8244V92.0989L26.7953 91.9004C26.5447 91.8475 26.3995 91.649 26.3995 91.3976V86.0125C26.3995 85.3113 26.5315 84.7026 26.98 84.0411C27.2043 83.7367 27.5605 83.3133 28.1146 83.3133C28.6688 83.3133 28.8667 83.8161 28.8007 84.2792C29.5527 84.61 30.3311 84.1205 30.3311 83.2869C30.3311 82.5989 29.8825 82.0432 28.9722 82.0432C28.3917 82.0432 27.7584 82.2416 27.1647 82.7576C26.7953 83.0884 26.4391 83.5383 26.1884 84.0146V82.0432H26.0433H26.0169ZM11.953 82.0432C11.4517 82.2416 10.515 82.5724 9.09009 82.7576V83.3927L10.1455 83.6441C10.1455 83.6441 10.5545 83.75 10.5545 84.1205V89.7834C10.5545 90.6964 10.7524 91.477 11.1086 91.9533C11.4385 92.4032 12.1113 93.0118 13.4966 93.0118C14.3014 93.0118 14.9215 92.7869 15.5811 92.4297C16.188 92.0989 16.6366 91.7019 16.8345 91.4902V93.0118H16.9928C17.4941 92.8398 18.4177 92.5091 19.8557 92.3106V91.702L18.8267 91.4506C18.8267 91.4506 18.4045 91.3447 18.4045 90.9478V82.0432H18.0219C17.5469 82.2416 16.6102 82.5724 15.1853 82.7576V83.3927L16.2144 83.6441C16.2144 83.6441 16.6366 83.75 16.6366 84.1205V89.1483C16.6366 90.1804 16.1616 90.8948 15.779 91.2653C15.3305 91.7284 14.5916 92.0989 13.8924 92.0989C13.2591 92.0989 12.9161 91.7946 12.705 91.5696C12.3224 91.0933 12.3224 90.4582 12.3224 90.0216V84.5835C12.3224 83.3001 12.4544 82.493 12.5203 82.0299H11.9398L11.953 82.0432ZM51.4534 29.9783C50.4507 22.9261 49.1841 15.2652 46.0442 4.23034C45.4109 1.98103 43.9333 0.618214 41.4397 0.102196C39.8038 -0.228584 37.4422 0.260971 35.0015 1.31947L32.8378 2.28535C40.9384 33.4713 39.4476 35.3899 39.6059 66.9728H51.8755V42.3098L65.3854 40.3648V66.9728H77.6814V37.5333C77.6814 29.158 73.1825 26.3794 65.1083 27.7158L51.4534 29.9651V29.9783ZM27.0856 66.3112C29.4472 65.6497 31.7164 64.7632 33.6954 63.7047L30.3575 53.0535C28.6951 53.7548 26.2808 54.6413 24.0511 55.3029C21.6104 55.9909 19.2488 56.4143 17.9163 56.0835C17.3094 55.9644 16.7289 55.7263 16.2276 55.4484C15.6735 55.1705 15.1985 54.8133 14.75 54.4164C14.0243 53.7283 13.4702 52.8948 13.114 51.8892C12.7842 50.9498 12.6127 49.8648 12.6127 48.6475V45.2339C12.6127 44.1489 12.7842 43.1831 13.1404 42.2966C13.4966 41.3571 14.0243 40.603 14.6972 39.9414C16.0561 38.6712 17.8372 38.0626 20.0008 38.0626C22.1645 38.0626 26.5183 40.0605 29.0777 41.2778L33.8273 32.4525C32.0858 31.1426 29.6714 29.8195 27.112 28.8139C24.3678 27.7025 21.4785 26.9748 19.2093 26.9748C13.4306 26.9748 8.6943 28.6684 5.44878 31.8571C2.28242 34.9532 0.50134 39.4915 0.50134 45.2471V48.6608C0.50134 51.6907 0.923522 54.3502 1.78108 56.6789C2.63863 58.9282 3.89199 60.8997 5.58071 62.5139C7.29582 64.1545 9.0769 65.3983 11.2142 66.2054C13.3779 67.0389 15.9637 67.4491 19.2093 67.4491C21.8479 67.4491 24.5393 67.039 27.0856 66.3112ZM89.6872 46.4644C88.7109 45.5514 88.1568 44.7973 88.1568 43.7785C88.1568 42.8655 88.7636 42.1378 89.8191 42.1378C90.8746 42.1378 91.2703 42.9184 91.2703 43.8578C91.2703 44.5856 91.0461 45.525 89.6872 46.4644ZM93.7111 53.5431C92.3522 54.853 90.9669 54.9853 90.2941 54.9853C89.3178 54.9853 88.4338 54.7074 87.7346 53.9665C87.1013 53.2785 86.9298 52.5243 86.9298 51.7172C86.9298 50.7249 87.1277 50.0765 87.629 49.2694C87.9589 48.7666 88.3151 48.3829 88.7636 48.0521L93.7243 53.5431H93.7111ZM95.3734 55.3425C95.7296 55.7395 96.3761 56.4275 97.2864 56.4275C97.9857 56.4275 98.5398 56.0173 98.9488 55.6998C99.3182 55.3955 99.6348 55.0912 99.9251 54.7339L99.4765 54.284C99.1467 54.7339 98.6189 54.9853 98.1968 54.9853C97.5107 54.9853 96.9698 54.4561 96.5872 54.0459L95.5054 52.8154C96.4817 51.5716 96.917 50.5396 97.4184 49.4282C97.6954 48.7931 98.2231 47.6023 99.7008 47.5361V46.9275H94.4895V47.5361L95.2415 47.6684C96.1914 47.8404 96.2178 48.7534 96.2178 48.9783C96.2178 50.0898 95.5185 51.3864 94.8853 52.1671L90.2017 47.0863C90.835 46.7026 91.4814 46.1468 91.9168 45.6705C92.4181 45.1413 92.8008 44.5062 92.8008 43.6991C92.8008 42.9978 92.4709 42.3627 91.996 41.9525C91.4946 41.5556 90.7426 41.3175 89.8323 41.3175C88.8032 41.3175 88.1436 41.6747 87.7478 41.979C86.9166 42.667 86.7847 43.5668 86.7847 44.2548C86.7847 45.0884 87.0353 46.1468 88.1963 47.4435C87.4971 47.8801 86.7319 48.4623 86.1514 49.1371C85.3994 50.0236 84.9376 50.963 84.9376 52.2464C84.9376 53.7945 85.5709 54.8001 86.4021 55.4616C87.009 55.9644 87.9852 56.454 89.3969 56.454C90.4524 56.454 92.339 56.1761 94.2256 54.1782L95.3602 55.369L95.3734 55.3425ZM157.197 29.9783C156.22 22.9261 154.954 15.2652 151.814 4.23034C151.181 1.98103 149.703 0.618214 147.209 0.102196C145.573 -0.228584 143.212 0.260971 140.771 1.31947L138.607 2.28535C146.682 33.4713 145.204 35.3899 145.376 66.9728H157.645V42.3098L171.142 40.3648V66.9728H183.438V37.5333C183.438 29.158 178.939 26.3794 170.865 27.7158L157.183 29.9651L157.197 29.9783ZM132.855 66.3112C135.217 65.6497 137.486 64.7632 139.478 63.7047L136.127 53.0535C134.465 53.7548 132.05 54.6413 129.821 55.3029C127.38 55.9909 125.018 56.4143 123.686 56.0835C123.079 55.9644 122.499 55.7263 121.971 55.4484C121.443 55.1705 120.968 54.8133 120.52 54.4164C119.794 53.7283 119.24 52.8948 118.884 51.8892C118.554 50.9498 118.382 49.8648 118.382 48.6475V45.2339C118.382 44.1489 118.554 43.1831 118.884 42.2966C119.253 41.3571 119.794 40.603 120.467 39.9414C121.826 38.6712 123.594 38.0626 125.77 38.0626C127.829 38.0626 132.288 40.0605 134.847 41.2778L139.597 32.4525C137.855 31.1426 135.454 29.8195 132.882 28.8139C130.137 27.7025 127.248 26.9748 124.992 26.9748C119.213 26.9748 114.477 28.6684 111.232 31.8571C108.065 34.94 106.284 39.4651 106.284 45.2339V48.6475C106.284 51.6775 106.706 54.337 107.564 56.6657C108.421 58.915 109.675 60.8864 111.364 62.5006C113.079 64.1413 114.86 65.385 116.997 66.1921C119.161 67.0257 121.72 67.4359 124.992 67.4359C127.631 67.4359 130.322 67.0257 132.868 66.298M0 82.3475V83.4589L1.66234 83.2604V91.3579C1.66234 91.7549 1.27974 91.8343 1.24016 91.8607L0.211091 92.1121V92.7472H5.29046V92.1121L3.8656 91.8607C3.61493 91.8343 3.45661 91.6093 3.45661 91.3579V83.2604L5.92373 83.4589V82.3475H3.45661V79.344C3.45661 78.9338 3.483 78.4046 3.83921 77.9547C4.0635 77.6504 4.4461 77.3725 5.05298 77.3725C5.35643 77.3725 5.65987 77.4784 5.88415 77.7562C6.01609 77.915 6.13482 78.1399 6.16121 78.4443C6.66255 78.4178 7.38818 78.2193 7.38818 77.5842C7.38818 77.3064 7.25624 76.5522 5.85777 76.5522C4.80231 76.5522 4.02392 76.8565 3.29829 77.4651C2.54628 78.1002 1.68873 79.2117 1.68873 81.0111V82.3739H0V82.3475Z" fill="#0C0905"/>
</svg>
