<svg width="86" height="48" viewBox="0 0 86 48" fill="none" xmlns="http://www.w3.org/2000/svg">
<path d="M1.812 38.696V44H1.032V38.696H0.312V38.048H1.032V36.764C1.032 36.516 1.068 36.3 1.14 36.116C1.22 35.924 1.324 35.764 1.452 35.636C1.588 35.508 1.744 35.416 1.92 35.36C2.096 35.296 2.284 35.264 2.484 35.264H3.12V35.972H2.592C2.432 35.972 2.3 36 2.196 36.056C2.092 36.104 2.012 36.172 1.956 36.26C1.9 36.348 1.86 36.448 1.836 36.56C1.82 36.664 1.812 36.772 1.812 36.884V38.048H3.12V38.696H1.812ZM8.31066 44V43.184H8.28666C8.08666 43.504 7.82666 43.732 7.50666 43.868C7.18666 44.004 6.86666 44.072 6.54666 44.072C6.26666 44.072 5.99866 44.028 5.74266 43.94C5.48666 43.844 5.25866 43.712 5.05866 43.544C4.86666 43.368 4.71066 43.156 4.59066 42.908C4.47866 42.652 4.42266 42.36 4.42266 42.032V38.048H5.19066V41.732C5.19066 42.244 5.32266 42.644 5.58666 42.932C5.85866 43.212 6.24666 43.352 6.75066 43.352C6.97466 43.352 7.18266 43.312 7.37466 43.232C7.56666 43.152 7.73066 43.036 7.86666 42.884C8.01066 42.732 8.12266 42.552 8.20266 42.344C8.28266 42.136 8.32266 41.904 8.32266 41.648V38.048H9.06666V44H8.31066ZM14.3184 38.924C14.1904 38.852 14.0544 38.8 13.9104 38.768C13.7744 38.736 13.6384 38.72 13.5024 38.72C13.0464 38.72 12.6704 38.864 12.3744 39.152C12.0864 39.44 11.9424 39.848 11.9424 40.376V44H11.1864V38.048H11.9424V38.936H11.9904C12.1984 38.56 12.4544 38.308 12.7584 38.18C13.0624 38.044 13.3824 37.98 13.7184 37.988C13.9024 37.996 14.0704 38.016 14.2224 38.048C14.3824 38.08 14.5184 38.128 14.6304 38.192L14.3184 38.924ZM19.6529 44V40.316C19.6529 39.812 19.5329 39.424 19.2929 39.152C19.0609 38.872 18.6729 38.732 18.1289 38.732C17.9049 38.732 17.6929 38.772 17.4929 38.852C17.3009 38.932 17.1329 39.048 16.9889 39.2C16.8449 39.344 16.7289 39.52 16.6409 39.728C16.5609 39.936 16.5209 40.168 16.5209 40.424V44H15.7649V38.048H16.5209V38.936H16.5569C16.7569 38.616 17.0209 38.38 17.3489 38.228C17.6769 38.068 18.0089 37.988 18.3449 37.988C18.6489 37.988 18.9289 38.032 19.1849 38.12C19.4409 38.208 19.6569 38.34 19.8329 38.516C20.0169 38.684 20.1569 38.896 20.2529 39.152C20.3569 39.408 20.4089 39.704 20.4089 40.04V44H19.6529ZM22.4598 36.428V35.648H23.2638V36.428H22.4598ZM22.4838 44V38.048H23.2518V44H22.4838ZM27.0427 44C26.6107 44 26.2827 43.88 26.0587 43.64C25.8427 43.4 25.7347 43.056 25.7347 42.608V38.696H24.9787V38.048H25.7347V36.524H26.5027V38.048H27.5107V38.696H26.5027V42.464C26.5027 42.576 26.5107 42.684 26.5267 42.788C26.5427 42.892 26.5787 42.984 26.6347 43.064C26.6907 43.144 26.7627 43.208 26.8507 43.256C26.9467 43.296 27.0747 43.316 27.2347 43.316H27.6787V44H27.0427ZM33.0466 44V43.184H33.0226C32.8226 43.504 32.5626 43.732 32.2426 43.868C31.9226 44.004 31.6026 44.072 31.2826 44.072C31.0026 44.072 30.7346 44.028 30.4786 43.94C30.2226 43.844 29.9946 43.712 29.7946 43.544C29.6026 43.368 29.4466 43.156 29.3266 42.908C29.2146 42.652 29.1586 42.36 29.1586 42.032V38.048H29.9266V41.732C29.9266 42.244 30.0586 42.644 30.3226 42.932C30.5946 43.212 30.9826 43.352 31.4866 43.352C31.7106 43.352 31.9186 43.312 32.1106 43.232C32.3026 43.152 32.4666 43.036 32.6026 42.884C32.7466 42.732 32.8586 42.552 32.9386 42.344C33.0186 42.136 33.0586 41.904 33.0586 41.648V38.048H33.8026V44H33.0466ZM39.0544 38.924C38.9264 38.852 38.7904 38.8 38.6464 38.768C38.5104 38.736 38.3744 38.72 38.2384 38.72C37.7824 38.72 37.4064 38.864 37.1104 39.152C36.8224 39.44 36.6784 39.848 36.6784 40.376V44H35.9224V38.048H36.6784V38.936H36.7264C36.9344 38.56 37.1904 38.308 37.4944 38.18C37.7984 38.044 38.1184 37.98 38.4544 37.988C38.6384 37.996 38.8064 38.016 38.9584 38.048C39.1184 38.08 39.2544 38.128 39.3664 38.192L39.0544 38.924ZM40.7016 41.228C40.6936 41.524 40.7216 41.804 40.7856 42.068C40.8496 42.332 40.9576 42.564 41.1096 42.764C41.2616 42.956 41.4536 43.112 41.6856 43.232C41.9256 43.344 42.2096 43.4 42.5376 43.4C42.7536 43.4 42.9896 43.356 43.2456 43.268C43.5016 43.172 43.7296 43.044 43.9296 42.884L44.3976 43.4C44.1336 43.632 43.8456 43.804 43.5336 43.916C43.2216 44.02 42.8976 44.072 42.5616 44.072C42.2576 44.072 41.9496 44.032 41.6376 43.952C41.3336 43.864 41.0536 43.712 40.7976 43.496C40.5496 43.272 40.3456 42.964 40.1856 42.572C40.0256 42.18 39.9456 41.672 39.9456 41.048C39.9456 40.456 40.0216 39.964 40.1736 39.572C40.3256 39.18 40.5176 38.868 40.7496 38.636C40.9896 38.396 41.2536 38.228 41.5416 38.132C41.8376 38.036 42.1256 37.988 42.4056 37.988C42.7656 37.988 43.0896 38.052 43.3776 38.18C43.6656 38.308 43.9136 38.488 44.1216 38.72C44.3296 38.952 44.4896 39.232 44.6016 39.56C44.7136 39.888 44.7696 40.248 44.7696 40.64V41.228H40.7016ZM44.0136 40.604C43.9976 39.956 43.8456 39.476 43.5576 39.164C43.2776 38.844 42.8856 38.684 42.3816 38.684C41.8936 38.684 41.4976 38.848 41.1936 39.176C40.8976 39.504 40.7336 39.98 40.7016 40.604H44.0136ZM50.6862 38.696V44H49.9062V38.696H49.1862V38.048H49.9062V36.764C49.9062 36.516 49.9422 36.3 50.0142 36.116C50.0942 35.924 50.1982 35.764 50.3262 35.636C50.4622 35.508 50.6182 35.416 50.7942 35.36C50.9702 35.296 51.1582 35.264 51.3582 35.264H51.9942V35.972H51.4662C51.3062 35.972 51.1742 36 51.0702 36.056C50.9662 36.104 50.8862 36.172 50.8302 36.26C50.7742 36.348 50.7342 36.448 50.7102 36.56C50.6942 36.664 50.6862 36.772 50.6862 36.884V38.048H51.9942V38.696H50.6862ZM56.9809 43.412C56.8289 43.644 56.5889 43.812 56.2609 43.916C55.9329 44.02 55.5649 44.072 55.1569 44.072C54.5329 44.072 54.0249 43.92 53.6329 43.616C53.2489 43.312 53.0569 42.888 53.0569 42.344C53.0569 42.112 53.0969 41.892 53.1769 41.684C53.2569 41.476 53.3769 41.296 53.5369 41.144C53.6969 40.984 53.8929 40.86 54.1249 40.772C54.3649 40.684 54.6449 40.64 54.9649 40.64H56.9929V39.872C56.9929 39.488 56.8729 39.196 56.6329 38.996C56.4009 38.796 56.0049 38.696 55.4449 38.696C54.7809 38.696 54.2689 38.88 53.9089 39.248L53.4289 38.732C53.6609 38.484 53.9489 38.3 54.2929 38.18C54.6369 38.052 55.0169 37.988 55.4329 37.988C55.7449 37.988 56.0409 38.016 56.3209 38.072C56.6009 38.128 56.8449 38.228 57.0529 38.372C57.2689 38.508 57.4369 38.7 57.5569 38.948C57.6849 39.188 57.7489 39.496 57.7489 39.872V44H56.9929V43.424L56.9809 43.412ZM55.1449 41.264C54.7129 41.264 54.3769 41.352 54.1369 41.528C53.8969 41.704 53.7769 41.964 53.7769 42.308C53.7769 42.652 53.9049 42.92 54.1609 43.112C54.4169 43.304 54.7809 43.4 55.2529 43.4C55.4449 43.4 55.6409 43.384 55.8409 43.352C56.0489 43.32 56.2369 43.26 56.4049 43.172C56.5809 43.076 56.7209 42.952 56.8249 42.8C56.9369 42.648 56.9929 42.452 56.9929 42.212V41.264H55.1449ZM63.7297 43.316C63.4897 43.548 63.2137 43.732 62.9017 43.868C62.5977 44.004 62.2577 44.072 61.8817 44.072C61.5457 44.072 61.2137 44.02 60.8857 43.916C60.5657 43.804 60.2817 43.628 60.0337 43.388C59.7857 43.14 59.5857 42.824 59.4337 42.44C59.2817 42.056 59.2057 41.588 59.2057 41.036C59.2057 40.484 59.2817 40.016 59.4337 39.632C59.5857 39.24 59.7857 38.924 60.0337 38.684C60.2817 38.444 60.5657 38.268 60.8857 38.156C61.2137 38.044 61.5457 37.988 61.8817 37.988C62.2577 37.988 62.5977 38.056 62.9017 38.192C63.2057 38.328 63.4777 38.508 63.7177 38.732L63.2257 39.284C63.0657 39.116 62.8697 38.98 62.6377 38.876C62.4137 38.764 62.1817 38.708 61.9417 38.708C61.3097 38.708 60.8217 38.904 60.4777 39.296C60.1337 39.68 59.9617 40.26 59.9617 41.036C59.9617 41.804 60.1337 42.388 60.4777 42.788C60.8217 43.18 61.3097 43.376 61.9417 43.376C62.1977 43.376 62.4377 43.316 62.6617 43.196C62.8857 43.068 63.0737 42.932 63.2257 42.788L63.7297 43.316ZM66.8359 44C66.4039 44 66.0759 43.88 65.8519 43.64C65.6359 43.4 65.5279 43.056 65.5279 42.608V38.696H64.7719V38.048H65.5279V36.524H66.2959V38.048H67.3039V38.696H66.2959V42.464C66.2959 42.576 66.3039 42.684 66.3199 42.788C66.3359 42.892 66.3719 42.984 66.4279 43.064C66.4839 43.144 66.5559 43.208 66.6439 43.256C66.7399 43.296 66.8679 43.316 67.0279 43.316H67.4719V44H66.8359ZM71.3157 38C71.7477 38 72.1277 38.084 72.4557 38.252C72.7837 38.42 73.0477 38.66 73.2477 38.972C73.3837 39.18 73.4917 39.46 73.5717 39.812C73.6517 40.156 73.6877 40.576 73.6797 41.072C73.6717 41.544 73.6197 41.944 73.5237 42.272C73.4357 42.6 73.3157 42.876 73.1637 43.1C72.9397 43.436 72.6557 43.684 72.3117 43.844C71.9677 43.996 71.5917 44.072 71.1837 44.072C70.3677 44.072 69.7557 43.808 69.3477 43.28C69.1557 43.024 69.0157 42.716 68.9277 42.356C68.8477 41.988 68.8077 41.548 68.8077 41.036C68.8077 40.588 68.8477 40.208 68.9277 39.896C69.0077 39.584 69.1237 39.308 69.2757 39.068C69.4837 38.732 69.7597 38.472 70.1037 38.288C70.4477 38.096 70.8517 38 71.3157 38ZM71.2797 38.672C70.9757 38.672 70.7077 38.74 70.4757 38.876C70.2437 39.012 70.0597 39.196 69.9237 39.428C69.8037 39.62 69.7117 39.844 69.6477 40.1C69.5917 40.348 69.5637 40.664 69.5637 41.048C69.5637 41.432 69.5917 41.756 69.6477 42.02C69.7117 42.276 69.7997 42.496 69.9117 42.68C70.0477 42.904 70.2237 43.08 70.4397 43.208C70.6637 43.328 70.9237 43.388 71.2197 43.388C71.5317 43.388 71.8117 43.32 72.0597 43.184C72.3077 43.048 72.4997 42.828 72.6357 42.524C72.7157 42.364 72.7797 42.168 72.8277 41.936C72.8837 41.704 72.9117 41.408 72.9117 41.048C72.9117 40.664 72.8877 40.356 72.8397 40.124C72.7997 39.884 72.7397 39.684 72.6597 39.524C72.3717 38.956 71.9117 38.672 71.2797 38.672ZM78.6952 38.924C78.5672 38.852 78.4312 38.8 78.2872 38.768C78.1512 38.736 78.0152 38.72 77.8792 38.72C77.4232 38.72 77.0472 38.864 76.7512 39.152C76.4632 39.44 76.3192 39.848 76.3192 40.376V44H75.5632V38.048H76.3192V38.936H76.3672C76.5752 38.56 76.8312 38.308 77.1352 38.18C77.4392 38.044 77.7592 37.98 78.0952 37.988C78.2792 37.996 78.4472 38.016 78.5992 38.048C78.7592 38.08 78.8952 38.128 79.0072 38.192L78.6952 38.924ZM81.9776 45.296C81.8176 45.736 81.6056 46.028 81.3416 46.172C81.0856 46.324 80.8056 46.4 80.5016 46.4H80.1056V45.728H80.4896C80.6736 45.728 80.8376 45.672 80.9816 45.56C81.1336 45.456 81.2536 45.26 81.3416 44.972L81.6656 43.976L79.4696 38.06H80.3096L81.2816 40.808L82.0256 43.004H82.0616C82.1416 42.764 82.2496 42.444 82.3856 42.044C82.5216 41.636 82.6696 41.204 82.8296 40.748L83.7536 38.06H84.5456L81.9776 45.296Z" fill="#121212"/>
<path d="M23.8698 13.823C23.4082 10.5735 22.8251 7.03852 21.3735 1.94865C21.0759 0.910024 20.3895 0.278352 19.2355 0.0475459C18.4702 -0.1043 17.383 0.114357 16.2472 0.606337L15.2389 1.04972C18.9925 15.4386 18.3062 16.3193 18.3791 30.8905H24.0703V19.5203L30.3385 18.6213V30.8905H36.0418V17.3154C36.0418 13.4464 33.9585 12.1709 30.2109 12.7844L23.8698 13.823ZM12.5725 30.5928C13.6658 30.2892 14.7105 29.8701 15.6337 29.3842L14.0849 24.4704C13.3135 24.8045 12.1959 25.2175 11.1512 25.5151C10.0154 25.837 8.92212 26.0314 8.30867 25.8856C8.0232 25.8188 7.76202 25.7216 7.51907 25.5941C7.27004 25.4665 7.04531 25.3025 6.83273 25.1143C6.49866 24.8045 6.24356 24.4158 6.0735 23.9481C5.92165 23.5168 5.84269 23.0188 5.84269 22.46V20.8808C5.84269 20.3827 5.92165 19.9333 6.07957 19.5263C6.24356 19.1012 6.48652 18.7428 6.8145 18.4452C7.44011 17.8682 8.26008 17.5766 9.27441 17.5766C10.2887 17.5766 12.2931 18.5059 13.4836 19.0647L15.6884 14.9892C14.8866 14.3879 13.763 13.7805 12.5786 13.3128C11.297 12.8026 9.96075 12.4564 8.90998 12.4564C6.23142 12.4564 4.03269 13.246 2.52638 14.7098C1.06258 16.1371 0.230469 18.2265 0.230469 20.8869V22.4661C0.230469 23.863 0.430905 25.09 0.825704 26.1589C1.21443 27.2097 1.80359 28.1086 2.58712 28.8618C3.37671 29.621 4.20883 30.192 5.19886 30.5686C6.20105 30.9451 7.39759 31.1395 8.9039 31.1395C10.1308 31.1395 11.376 30.9451 12.5604 30.6171M41.5933 21.4517C41.1438 21.0387 40.8826 20.6864 40.8826 20.2248C40.8826 19.7996 41.162 19.4595 41.6601 19.4595C42.1581 19.4595 42.3282 19.8239 42.3282 20.2552C42.3282 20.5892 42.225 21.0205 41.5933 21.4517ZM43.464 24.7195C42.8323 25.3208 42.1885 25.3815 41.8848 25.3815C41.4232 25.3815 41.0102 25.26 40.6943 24.9199C40.3967 24.6041 40.3117 24.2578 40.3117 23.8752C40.3117 23.4257 40.4089 23.116 40.6458 22.7515C40.7976 22.5146 40.9494 22.3385 41.162 22.1867L43.464 24.7195ZM44.2354 25.5516C44.4055 25.7338 44.7031 26.0496 45.1282 26.0496C45.4502 26.0496 45.7113 25.8553 45.8936 25.7156C46.0758 25.5698 46.2094 25.4362 46.3552 25.2661L46.1426 25.0657C45.9907 25.2661 45.7478 25.3815 45.5473 25.3815C45.2315 25.3815 44.9703 25.1386 44.8003 24.9503L44.2901 24.3854C44.7517 23.8084 44.9521 23.3285 45.1829 22.8244C45.3165 22.5268 45.5595 21.9802 46.2458 21.9498V21.6643H43.8284V21.9498L44.1747 22.0105C44.6241 22.0895 44.6363 22.5086 44.6363 22.6179C44.6363 23.122 44.3083 23.7233 44.0107 24.0817L41.8423 21.7433C42.1278 21.5611 42.4375 21.312 42.638 21.0934C42.8688 20.8443 43.0388 20.5467 43.0388 20.1823C43.0388 19.8482 42.887 19.5567 42.6623 19.3745C42.4315 19.1801 42.0792 19.0769 41.6662 19.0769C41.1863 19.0769 40.8766 19.2409 40.6943 19.3805C40.2995 19.6964 40.2449 20.1216 40.2449 20.4252C40.2449 20.82 40.3664 21.2999 40.9069 21.9012C40.5789 22.0956 40.2267 22.3628 39.9594 22.6786C39.6071 23.0917 39.4006 23.5229 39.4006 24.1181C39.4006 24.8288 39.6861 25.2965 40.0748 25.6062C40.3603 25.837 40.8097 26.0557 41.4657 26.0557C41.9577 26.0557 42.8263 25.9342 43.707 24.9988L44.2232 25.5576L44.2354 25.5516ZM72.9221 13.8473C72.4605 10.5978 71.8835 7.06282 70.4258 1.97295C70.1281 0.934324 69.4418 0.302643 68.2938 0.0718372C67.5285 -0.0800087 66.4413 0.138648 65.3055 0.630629L64.2973 1.07402C68.0448 15.4629 67.3585 16.3436 67.4314 30.9148H73.1225V19.5445L79.3907 18.6456V30.9148H85.0941V17.3397C85.0941 13.4707 83.0108 12.1952 79.2632 12.8087L72.9221 13.8473ZM61.6309 30.6171C62.7241 30.3134 63.7688 29.8944 64.6921 29.4085L63.1432 24.4947C62.3719 24.8288 61.2543 25.2418 60.2096 25.5394C59.0738 25.8613 57.9805 26.0557 57.367 25.9099C57.0816 25.8431 56.8204 25.7459 56.5774 25.6184C56.3284 25.4908 56.1037 25.3268 55.8911 25.1385C55.5509 24.8288 55.3019 24.4401 55.1319 23.9724C54.98 23.5411 54.901 23.0431 54.901 22.4843V20.9051C54.901 20.407 54.98 19.9576 55.1379 19.5506C55.3019 19.1255 55.5449 18.7671 55.8729 18.4695C56.4985 17.8925 57.3184 17.6009 58.3328 17.6009C59.3471 17.6009 61.3515 18.5302 62.5419 19.089L64.7528 15.0135C63.9511 14.4122 62.8274 13.8048 61.643 13.3371C60.3614 12.8269 59.0252 12.4807 57.9744 12.4807C55.2958 12.4807 53.0971 13.2703 51.5908 14.7341C50.127 16.1614 49.2949 18.2508 49.2949 20.9112V22.4904C49.2949 23.8873 49.4953 25.1143 49.8901 26.1833C50.2789 27.234 50.868 28.1329 51.6515 28.8861C52.4411 29.6453 53.2733 30.2163 54.2633 30.5928C55.2715 30.9694 56.462 31.1638 57.9744 31.1638C59.2013 31.1638 60.4465 30.9694 61.6309 30.6414" fill="#F0BA30"/>
</svg>
