<svg width="42" height="42" viewBox="0 0 42 42" fill="none" xmlns="http://www.w3.org/2000/svg">
<rect width="42" height="42" rx="21" fill="#F7F7F7"/>
<path d="M16.3744 30.0366C15.8735 30.0366 15.4446 29.8581 15.0876 29.5011C14.7306 29.1441 14.5524 28.7154 14.553 28.2151C14.553 27.7142 14.7315 27.2853 15.0885 26.9283C15.4455 26.5713 15.8742 26.3931 16.3744 26.3937C16.8753 26.3937 17.3043 26.5722 17.6613 26.9292C18.0183 27.2862 18.1965 27.7148 18.1959 28.2151C18.1959 28.716 18.0174 29.145 17.6604 29.502C17.3034 29.859 16.8747 30.0372 16.3744 30.0366ZM25.4816 30.0366C24.9807 30.0366 24.5517 29.8581 24.1947 29.5011C23.8377 29.1441 23.6595 28.7154 23.6602 28.2151C23.6602 27.7142 23.8387 27.2853 24.1957 26.9283C24.5527 26.5713 24.9813 26.3931 25.4816 26.3937C25.9825 26.3937 26.4114 26.5722 26.7684 26.9292C27.1254 27.2862 27.3036 27.7148 27.303 28.2151C27.303 28.716 27.1245 29.145 26.7675 29.502C26.4105 29.859 25.9819 30.0372 25.4816 30.0366ZM16.3744 25.483C15.6914 25.483 15.1753 25.1831 14.8262 24.5832C14.4771 23.9833 14.4619 23.3877 14.7807 22.7964L16.0102 20.5651L12.7316 13.6437H11.7981C11.5401 13.6437 11.3276 13.5563 11.1606 13.3814C10.9936 13.2066 10.9102 12.9904 10.9102 12.733C10.9102 12.4749 10.9976 12.2585 11.1724 12.0836C11.3473 11.9088 11.5634 11.8217 11.8209 11.8223H13.3008C13.4677 11.8223 13.6271 11.8678 13.7789 11.9589C13.9307 12.0499 14.0445 12.179 14.1204 12.3459L14.7352 13.6437H28.1682C28.578 13.6437 28.8588 13.7955 29.0106 14.0991C29.1624 14.4026 29.1548 14.7214 28.9878 15.0553L25.7548 20.8839C25.5878 21.1874 25.3677 21.4227 25.0945 21.5897C24.8213 21.7566 24.5102 21.8401 24.161 21.8401H17.3762L16.3744 23.6616H26.4151C26.6731 23.6616 26.8856 23.749 27.0526 23.9238C27.2195 24.0987 27.303 24.3148 27.303 24.5723C27.303 24.8303 27.2156 25.0468 27.0407 25.2216C26.8659 25.3965 26.6497 25.4836 26.3923 25.483H16.3744Z" fill="#F0BA30"/>
</svg>
