<svg width="27" height="27" viewBox="0 0 27 27" fill="none" xmlns="http://www.w3.org/2000/svg">
<rect width="27" height="27" rx="13.5" fill="white"/>
<path d="M7.29736 12.7703C6.89434 12.7703 6.56763 13.097 6.56763 13.5C6.56763 13.903 6.89434 14.2297 7.29736 14.2297V12.7703ZM20.2188 14.016C20.5037 13.731 20.5037 13.269 20.2188 12.984L15.5748 8.34003C15.2898 8.05505 14.8278 8.05505 14.5428 8.34003C14.2578 8.62501 14.2578 9.08705 14.5428 9.37203L18.6708 13.5L14.5428 17.628C14.2578 17.913 14.2578 18.375 14.5428 18.66C14.8278 18.9449 15.2898 18.9449 15.5748 18.66L20.2188 14.016ZM7.29736 14.2297H19.7028V12.7703H7.29736V14.2297Z" fill="#F0BA30"/>
</svg>
