<svg width="48" height="48" viewBox="0 0 48 48" fill="none" xmlns="http://www.w3.org/2000/svg">
<rect x="1.40541" y="1.40541" width="45.1892" height="45.1892" rx="22.5946" fill="#F0BA30"/>
<path d="M34.1074 22.8108C34.7642 22.8108 35.2966 23.3432 35.2966 24C35.2966 24.6568 34.7642 25.1892 34.1074 25.1892V22.8108ZM13.0503 24.8409C12.5859 24.3765 12.5859 23.6235 13.0503 23.1591L20.6183 15.5912C21.0827 15.1268 21.8356 15.1268 22.3 15.5912C22.7644 16.0556 22.7644 16.8085 22.3 17.2729L15.573 24L22.3 30.7271C22.7644 31.1915 22.7644 31.9444 22.3 32.4088C21.8356 32.8732 21.0827 32.8732 20.6183 32.4088L13.0503 24.8409ZM34.1074 25.1892H13.8912V22.8108H34.1074V25.1892Z" fill="white"/>
<rect x="1.40541" y="1.40541" width="45.1892" height="45.1892" rx="22.5946" stroke="#F0BA30" stroke-width="1.18919"/>
</svg>
