<svg width="48" height="48" viewBox="0 0 48 48" fill="none" xmlns="http://www.w3.org/2000/svg">
<rect x="1.40541" y="1.40541" width="45.1892" height="45.1892" rx="22.5946" fill="white"/>
<path d="M13.8926 22.8108C13.2358 22.8108 12.7034 23.3432 12.7034 24C12.7034 24.6568 13.2358 25.1892 13.8926 25.1892V22.8108ZM34.9497 24.8409C35.4141 24.3765 35.4141 23.6235 34.9497 23.1591L27.3817 15.5912C26.9173 15.1268 26.1644 15.1268 25.7 15.5912C25.2356 16.0556 25.2356 16.8085 25.7 17.2729L32.427 24L25.7 30.7271C25.2356 31.1915 25.2356 31.9444 25.7 32.4088C26.1644 32.8732 26.9173 32.8732 27.3817 32.4088L34.9497 24.8409ZM13.8926 25.1892H34.1088V22.8108H13.8926V25.1892Z" fill="#F0BA30"/>
<rect x="1.40541" y="1.40541" width="45.1892" height="45.1892" rx="22.5946" stroke="#E4E4E4" stroke-width="1.18919"/>
</svg>
