<svg width="50" height="51" viewBox="0 0 50 51" fill="none" xmlns="http://www.w3.org/2000/svg">
<rect y="0.5" width="50" height="50" rx="25" fill="#FFF3D6"/>
<path d="M29.0082 27.8833C29.2068 27.9736 29.4101 27.9826 29.6181 27.9104C29.8254 27.8382 29.9651 27.7027 30.0373 27.5041C30.1818 27.1791 30.2811 26.8498 30.3353 26.5161C30.3894 26.1817 30.4165 25.843 30.4165 25.5C30.4165 24.8138 30.2858 24.1321 30.0243 23.4546C29.7622 22.7779 29.3693 22.1777 28.8457 21.6541C28.3221 21.1305 27.7309 20.7423 27.0723 20.4895C26.4129 20.2368 25.7401 20.1104 25.054 20.1104L25.5415 19.6229C25.704 19.4604 25.7809 19.2708 25.7723 19.0541C25.7629 18.8375 25.6769 18.6479 25.5144 18.4854C25.3519 18.3229 25.1623 18.2416 24.9457 18.2416C24.729 18.2416 24.5394 18.3229 24.3769 18.4854L22.2373 20.5979C22.129 20.7062 22.0748 20.8326 22.0748 20.977C22.0748 21.1215 22.129 21.2479 22.2373 21.3562L24.3769 23.4687C24.5394 23.6132 24.729 23.6897 24.9457 23.6984C25.1623 23.7078 25.3519 23.6312 25.5144 23.4687C25.6769 23.3062 25.7582 23.1166 25.7582 22.9C25.7582 22.6833 25.6769 22.4937 25.5144 22.3312L24.8915 21.7083C25.379 21.7083 25.8755 21.8029 26.3811 21.9921C26.8866 22.1821 27.32 22.4576 27.6811 22.8187C28.0422 23.1798 28.3177 23.5951 28.5077 24.0645C28.6969 24.534 28.7915 25.0034 28.7915 25.4729C28.7915 25.6895 28.7781 25.9062 28.7514 26.1229C28.724 26.3395 28.6651 26.5472 28.5748 26.7458C28.4846 26.9986 28.4802 27.2286 28.5618 27.4359C28.6427 27.6439 28.7915 27.793 29.0082 27.8833ZM24.4853 32.5145C24.6478 32.677 24.8373 32.7583 25.054 32.7583C25.2707 32.7583 25.4603 32.677 25.6228 32.5145L27.7623 30.402C27.8707 30.2937 27.9248 30.1673 27.9248 30.0229C27.9248 29.8784 27.8707 29.752 27.7623 29.6437L25.6228 27.5312C25.4603 27.3868 25.2707 27.3098 25.054 27.3005C24.8373 27.2918 24.6478 27.3687 24.4853 27.5312C24.3228 27.6937 24.2415 27.8833 24.2415 28.1C24.2415 28.3166 24.3228 28.5062 24.4853 28.6687L25.0811 29.2645C24.5755 29.2826 24.0837 29.2013 23.6056 29.0208C23.1268 28.8402 22.6978 28.5604 22.3186 28.1812C21.9575 27.8201 21.6819 27.4048 21.492 26.9354C21.3028 26.4659 21.2082 25.9965 21.2082 25.527C21.2082 25.2923 21.2219 25.071 21.2493 24.863C21.2761 24.6557 21.3346 24.4437 21.4248 24.227C21.4971 24.0284 21.5061 23.8342 21.4519 23.6442C21.3978 23.455 21.2894 23.3062 21.1269 23.1979C20.9103 23.0534 20.6799 23.0173 20.4358 23.0895C20.1924 23.1618 20.0255 23.3062 19.9353 23.5229C19.7908 23.8479 19.6958 24.1682 19.6503 24.4838C19.6056 24.8001 19.5832 25.1388 19.5832 25.5C19.5832 26.1861 19.7186 26.8632 19.9894 27.5312C20.2603 28.1993 20.6575 28.7951 21.1811 29.3187C21.7047 29.8423 22.2915 30.2352 22.9415 30.4974C23.5915 30.7588 24.2596 30.8986 24.9457 30.9166L24.4853 31.377C24.3228 31.5395 24.2415 31.7291 24.2415 31.9458C24.2415 32.1625 24.3228 32.352 24.4853 32.5145ZM24.9998 36.3333C23.5012 36.3333 22.0929 36.0487 20.7748 35.4796C19.4568 34.9112 18.3103 34.1395 17.3353 33.1645C16.3603 32.1895 15.5886 31.043 15.0202 29.725C14.4511 28.4069 14.1665 26.9986 14.1665 25.5C14.1665 24.0013 14.4511 22.593 15.0202 21.275C15.5886 19.9569 16.3603 18.8104 17.3353 17.8354C18.3103 16.8604 19.4568 16.0883 20.7748 15.5192C22.0929 14.9508 23.5012 14.6666 24.9998 14.6666C26.4984 14.6666 27.9068 14.9508 29.2248 15.5192C30.5429 16.0883 31.6894 16.8604 32.6644 17.8354C33.6394 18.8104 34.4111 19.9569 34.9795 21.275C35.5486 22.593 35.8332 24.0013 35.8332 25.5C35.8332 26.9986 35.5486 28.4069 34.9795 29.725C34.4111 31.043 33.6394 32.1895 32.6644 33.1645C31.6894 34.1395 30.5429 34.9112 29.2248 35.4796C27.9068 36.0487 26.4984 36.3333 24.9998 36.3333Z" fill="#F0BA30"/>
</svg>
